<svg xmlns="http://www.w3.org/2000/svg" viewBox="0 0 24 24">
 <path d="M22.67,5.33h-4v-4A1.33,1.33,0,0,0,17.33,0H6.67A1.33,1.33,0,0,0,5.33,1.33v4h-4A1.33,1.33,0,0,0,0,6.67v16A1.33,1.33,0,0,0,1.33,24h4a1.34,1.34,0,1,0,0-2.67H2.67V14.67H8V16a1.33,1.33,0,0,0,1.33,1.33h5.34A1.33,1.33,0,0,0,16,16V14.67h5.33v6.66H10.67a1.34,1.34,0,1,0,0,2.67h12A1.33,1.33,0,0,0,24,22.67v-16a1.33,1.33,0,0,0-1.33-1.34ZM8,2.67h8V5.33H8Zm5.33,12H10.67V12h2.66ZM16,12V10.67a1.33,1.33,0,0,0-1.33-1.34H9.33A1.33,1.33,0,0,0,8,10.67V12H2.67V8H21.33v4Z"/>
</svg>