<svg xmlns="http://www.w3.org/2000/svg" viewBox="0 0 14 18">
 <path d="M11.31,8.24a3.88,3.88,0,0,0,.68-2,4,4,0,0,0-.46-2.09A4,4,0,0,0,8,2V1A1,1,0,0,0,7.71.29a1,1,0,0,0-1.42,0A1,1,0,0,0,6,1V2H4V1A1,1,0,0,0,3.71.29a1,1,0,0,0-1.42,0A1,1,0,0,0,2,1V2H1a1,1,0,0,0-.71.29,1,1,0,0,0,0,1.42A1,1,0,0,0,1,4H2V14H1a1,1,0,0,0-.71.29,1,1,0,0,0,0,1.42A1,1,0,0,0,1,16H2v1a1,1,0,0,0,1,1,1,1,0,0,0,1-1V16H6v1a1,1,0,1,0,2,0V16h2a4,4,0,0,0,2.58-.94,4,4,0,0,0,1.36-2.38,4,4,0,0,0-.5-2.71,4,4,0,0,0-2.13-1.73ZM4,4H8A2,2,0,0,1,9.41,7.41,2,2,0,0,1,8,8H4Zm6,10H4V10h6a2,2,0,0,1,0,4Z"/>
</svg>