<svg xmlns="http://www.w3.org/2000/svg" viewBox="0 0 24 24">
 <path d="M1.33,24a1.37,1.37,0,0,1-.49-.09,1.34,1.34,0,0,1-.61-.49A1.38,1.38,0,0,1,0,22.67V1.33A1.33,1.33,0,0,1,1.33,0H22.67A1.33,1.33,0,0,1,24,1.33v4a1.34,1.34,0,1,1-2.67,0V2.67H2.67V19.31l2.66-2.88a1.5,1.5,0,0,1,.46-.33,1.35,1.35,0,0,1,.56-.1h15V10.67a1.34,1.34,0,1,1,2.67,0v6.66a1.33,1.33,0,0,1-1.33,1.34H6.92l-4.61,4.9a1.42,1.42,0,0,1-.45.32A1.32,1.32,0,0,1,1.33,24Z"/>
 <path d="M17.33,8H6.67a1.34,1.34,0,1,1,0-2.67H17.33a1.34,1.34,0,1,1,0,2.67Zm0,5.33H6.67a1.33,1.33,0,1,1,0-2.66H17.33a1.33,1.33,0,1,1,0,2.66Z"/>
</svg>