<svg xmlns="http://www.w3.org/2000/svg" viewBox="0 0 26.99 26.99">
 <path d="M18.44,8.55A1.42,1.42,0,0,0,18,8.26a1.29,1.29,0,0,0-.51-.1,1.34,1.34,0,0,0-.52.1,1.42,1.42,0,0,0-.43.29L13.5,11.62,10.44,8.55a1.34,1.34,0,0,0-1.89,1.89l3.07,3.06L8.55,16.55a1.42,1.42,0,0,0-.29.43,1.34,1.34,0,0,0-.1.52,1.29,1.29,0,0,0,.1.51,1.42,1.42,0,0,0,.29.43,1.28,1.28,0,0,0,.43.3,1.55,1.55,0,0,0,.52.1,1.49,1.49,0,0,0,.51-.1,1.28,1.28,0,0,0,.43-.3l3.06-3.06,3.05,3.06a1.28,1.28,0,0,0,.43.3,1.55,1.55,0,0,0,.52.1,1.49,1.49,0,0,0,.51-.1,1.5,1.5,0,0,0,.73-.73,1.49,1.49,0,0,0,.1-.51,1.55,1.55,0,0,0-.1-.52,1.28,1.28,0,0,0-.3-.43L15.38,13.5l3.06-3.06a1.28,1.28,0,0,0,.3-.43,1.49,1.49,0,0,0,.1-.51,1.55,1.55,0,0,0-.1-.52A1.28,1.28,0,0,0,18.44,8.55Zm4.48-4.48A13.34,13.34,0,0,0,8.28,1,13.47,13.47,0,0,0,1,8.28,13.31,13.31,0,0,0,4.07,22.92,13.33,13.33,0,0,0,26,18.71,13.33,13.33,0,0,0,22.92,4.07ZM21,21a10.67,10.67,0,1,1,3.12-7.54,10.38,10.38,0,0,1-.8,4.08A10.53,10.53,0,0,1,21,21Z"/>
</svg>