<svg xmlns="http://www.w3.org/2000/svg" viewBox="0 0 24.04 24">
 <path d="M11.28,9.33h3.38a1.33,1.33,0,1,0,0-2.66H13.33V5.33a1.34,1.34,0,0,0-2.67,0v1.4A3.37,3.37,0,0,0,8.65,8a3.33,3.33,0,0,0,2.63,5.32h1.44a.72.72,0,0,1,.25.07.65.65,0,0,1,.21.16.57.57,0,0,1,.12.23.6.6,0,0,1,0,.26.6.6,0,0,1-.18.43.65.65,0,0,1-.43.19H9.33a1.33,1.33,0,0,0,0,2.66h1.33v1.34a1.34,1.34,0,0,0,2.67,0v-1.4a3.34,3.34,0,0,0,2-1.28,3.38,3.38,0,0,0,.65-2.3,3.33,3.33,0,0,0-1.06-2.14,3.3,3.3,0,0,0-2.21-.88H11.28A.77.77,0,0,1,11,10.6a.53.53,0,0,1-.2-.16.76.76,0,0,1-.13-.23.6.6,0,0,1,0-.26.65.65,0,0,1,.62-.62Z"/>
 <path d="M12,0a12,12,0,1,0,9.05,19.88A1.33,1.33,0,0,0,20.92,18a1.34,1.34,0,0,0-1.88.13A9.34,9.34,0,1,1,21.33,12a9.78,9.78,0,0,1-.17,1.79,1.33,1.33,0,0,0,.21,1,1.3,1.3,0,0,0,.87.57,1.33,1.33,0,0,0,1-.21,1.3,1.3,0,0,0,.57-.87A12,12,0,0,0,12,0Z"/>
</svg>