<svg xmlns="http://www.w3.org/2000/svg" viewBox="0 0 12.81 20.76">
 <path d="M12.81,10.59a.81.81,0,0,0,0-.22v-.28a1.17,1.17,0,0,0-.05-.11L7.16.38a.38.38,0,0,0-.1-.12A.66.66,0,0,0,6.79.07a.77.77,0,0,0-.64,0,.66.66,0,0,0-.27.19.58.58,0,0,0-.1.12L.18,10a1.17,1.17,0,0,0,0,.11v.08a.82.82,0,0,0-.12.2.74.74,0,0,0,0,.21.11.11,0,0,0,0,.08.49.49,0,0,0,0,.11l5.6,9.6a.89.89,0,0,0,.3.28.77.77,0,0,0,.39.11.8.8,0,0,0,.4-.11A.78.78,0,0,0,7,20.37l5.6-9.6a.54.54,0,0,0,0-.11Zm-10-.22L5.61,9.19v2.4ZM5.61,7.45,2.72,8.69l2.89-5Zm1.6,1.74L10,10.37,7.21,11.56Zm0-1.74V3.73l2.88,5Zm-.8,10.92L2.72,12.05l3.37,1.44a.71.71,0,0,0,.32.07.7.7,0,0,0,.31-.07l3.37-1.44Z"/>
</svg>