<svg xmlns="http://www.w3.org/2000/svg" viewBox="0 0 21.33 21.33">
 <path d="M20.94.39A1.33,1.33,0,0,0,20,0H14.67a1.34,1.34,0,1,0,0,2.67h2.1L12.39,7.05a1.35,1.35,0,0,0-.3,1.46,1.4,1.4,0,0,0,.5.6,1.31,1.31,0,0,0,.74.22,1.32,1.32,0,0,0,.94-.4l4.4-4.4V6.67a1.33,1.33,0,0,0,2.66,0V1.33A1.33,1.33,0,0,0,20.94.39Z"/>
 <path d="M8,12.07a1.31,1.31,0,0,0-.92.32L2.67,16.77v-2.1a1.34,1.34,0,1,0-2.67,0V20a1.58,1.58,0,0,0,.09.49,1.49,1.49,0,0,0,.28.41s0,0,0,0,0,0,0,0a1,1,0,0,0,.15.14,1,1,0,0,0,.18.09l.09,0a1.27,1.27,0,0,0,.47.09H6.67a1.33,1.33,0,0,0,0-2.66H4.53l4.4-4.4a1.31,1.31,0,0,0,.32-.92A1.34,1.34,0,0,0,8,12.07Z"/>
</svg>