<svg xmlns="http://www.w3.org/2000/svg" viewBox="0 0 30.43 28.94">
 <path d="M24.62,28.94l-8.82-6.4a1,1,0,0,0-1.17,0l-5.52,4h0L7.49,27.72h0L5.81,28.94,9.18,18.58a1,1,0,0,0-.36-1.12L0,11.06H10.9a1,1,0,0,0,.95-.7L15.22,0l3.36,10.36a1,1,0,0,0,1,.7H30.43l-8.81,6.4a1,1,0,0,0-.37,1.12Zm-9.4-8.59a3,3,0,0,1,1.76.57l3.84,2.79L19.35,19.2a3,3,0,0,1,1.09-3.36l3.84-2.78H19.54A3,3,0,0,1,16.68,11L15.22,6.47,13.75,11a3,3,0,0,1-2.85,2.08H6.16L10,15.84a3,3,0,0,1,1.09,3.36L9.62,23.71l3.83-2.79A3,3,0,0,1,15.22,20.35Z"/>
</svg>