<svg xmlns="http://www.w3.org/2000/svg" viewBox="0 0 21.33 24">
 <path d="M21,7.17,15.71.51a1.43,1.43,0,0,0-.47-.38A1.4,1.4,0,0,0,14.67,0H1.33A1.33,1.33,0,0,0,0,1.33V8A1.34,1.34,0,0,0,2.67,8V2.67H12V8a1.33,1.33,0,0,0,1.33,1.33h5.34v12h-16V14.67a1.34,1.34,0,1,0-2.67,0v8A1.33,1.33,0,0,0,1.33,24H20a1.33,1.33,0,0,0,1.33-1.33V8A1.33,1.33,0,0,0,21,7.17Zm-6.37-3.7,2.56,3.2H14.67Z"/>
 <path d="M10.67,10.67A1.33,1.33,0,0,0,9.33,12v1.33H8A1.34,1.34,0,0,0,8,16H9.33v1.33a1.34,1.34,0,1,0,2.67,0V16h1.33a1.34,1.34,0,1,0,0-2.67H12V12a1.33,1.33,0,0,0-1.33-1.33Z"/>
</svg>