<svg xmlns="http://www.w3.org/2000/svg" viewBox="0 0 24 24">
 <path d="M17.83,7.35a4,4,0,0,0,4.39,0,4.07,4.07,0,0,0,1.48-1.8,4,4,0,0,0,.22-2.31A4,4,0,0,0,18.47.3a4.07,4.07,0,0,0-1.8,1.48A4,4,0,0,0,16,4a3.78,3.78,0,0,0,.2,1.2L14.13,7.29a4.05,4.05,0,0,0-2.59-.59A4,4,0,0,0,9.15,7.87l-1.23-.4A4.34,4.34,0,0,0,8,6.67a4,4,0,0,0-.86-2.5A4,4,0,0,0,2.29,3,4,4,0,1,0,6.47,9.8L8,10.31a2.16,2.16,0,0,0,0,.36,4,4,0,1,0,8,0,4.49,4.49,0,0,0-.21-1.26ZM20,2.67a1.31,1.31,0,0,1,.74.22,1.36,1.36,0,0,1,.49.6,1.35,1.35,0,0,1,.08.77,1.27,1.27,0,0,1-.37.68,1.27,1.27,0,0,1-.68.37,1.35,1.35,0,0,1-.77-.08,1.36,1.36,0,0,1-.6-.49A1.31,1.31,0,0,1,18.67,4,1.33,1.33,0,0,1,20,2.67Zm-17.33,4a1.29,1.29,0,0,1,.22-.74,1.46,1.46,0,0,1,.6-.5,1.35,1.35,0,0,1,.77-.07,1.33,1.33,0,0,1,1,1,1.35,1.35,0,0,1-.57,1.37A1.39,1.39,0,0,1,4,8,1.33,1.33,0,0,1,2.67,6.67ZM12,12a1.39,1.39,0,0,1-.74-.22,1.35,1.35,0,0,1-.57-1.37,1.35,1.35,0,0,1,1.82-1,1.46,1.46,0,0,1,.6.5,1.29,1.29,0,0,1,.22.74A1.33,1.33,0,0,1,12,12Z"/>
 <path d="M6.67,12h-4a1.33,1.33,0,0,0-1.34,1.33v9.34A1.33,1.33,0,0,0,2.67,24h4A1.33,1.33,0,0,0,8,22.67V13.33A1.33,1.33,0,0,0,6.67,12ZM5.33,21.33H4V14.67H5.33Zm17.34-12h-4a1.33,1.33,0,0,0-1.34,1.34v12A1.33,1.33,0,0,0,18.67,24h4A1.33,1.33,0,0,0,24,22.67v-4a1.34,1.34,0,1,0-2.67,0v2.66H20V12h1.33v2.67a1.34,1.34,0,0,0,2.67,0v-4a1.33,1.33,0,0,0-1.33-1.34Zm-8,6.67h-4a1.33,1.33,0,0,0-1.34,1.33v5.34A1.33,1.33,0,0,0,10.67,24h4A1.33,1.33,0,0,0,16,22.67V17.33A1.33,1.33,0,0,0,14.67,16Zm-1.34,5.33H12V18.67h1.33Z"/>
</svg>