<svg xmlns="http://www.w3.org/2000/svg" viewBox="0 0 27 25.94">
 <path d="M21.51,12.61a1.33,1.33,0,0,0-1.33,1.33v9.34H17.51V16.61a1.33,1.33,0,0,0-1.33-1.33H10.84a1.33,1.33,0,0,0-1.33,1.33v6.67H6.84V13.94a1.33,1.33,0,0,0-2.66,0V24.61a1.32,1.32,0,0,0,.39.94,1.33,1.33,0,0,0,.94.39h16a1.33,1.33,0,0,0,.94-.39,1.32,1.32,0,0,0,.39-.94V13.94a1.33,1.33,0,0,0-1.33-1.33ZM14.84,23.28H12.18V17.94h2.66Zm11.8-10.35a1.37,1.37,0,0,1-.45.34,1.46,1.46,0,0,1-.55.11,1.32,1.32,0,0,1-.88-.33l-11.25-10L2.26,13a1.41,1.41,0,0,1-.45.28,1.21,1.21,0,0,1-.53.09,1.33,1.33,0,0,1-.52-.13,1.51,1.51,0,0,1-.43-.32,1.28,1.28,0,0,1-.26-.47A1.36,1.36,0,0,1,0,11.92a1.32,1.32,0,0,1,.16-.51A1.23,1.23,0,0,1,.5,11L12.63.33a1.34,1.34,0,0,1,1.76,0L26.52,11a1.26,1.26,0,0,1,.34.42,1.34,1.34,0,0,1,.14.52,1.36,1.36,0,0,1-.36,1Z"/>
</svg>