<svg xmlns="http://www.w3.org/2000/svg" viewBox="0 0 32 32">
 <path d="M25.33,0H6.67A6.66,6.66,0,0,0,0,6.67V25.33A6.63,6.63,0,0,0,1.92,30l0,.05.05,0A6.63,6.63,0,0,0,6.67,32H25.33A6.66,6.66,0,0,0,32,25.33V6.67A6.66,6.66,0,0,0,25.33,0ZM2.67,6.67a4,4,0,0,1,4-4H25.33a4,4,0,0,1,4,4V20.78l-5.72-5.72a1.34,1.34,0,0,0-1.89,0l-6.39,6.39-2.39-2.39a1.33,1.33,0,0,0-1.88,0l-8,8a4,4,0,0,1-.4-1.72ZM25.33,29.33H6.67A4,4,0,0,1,5,28.93l7.05-7,4.39,4.39a1.37,1.37,0,0,0,.94.38,1.39,1.39,0,0,0,1-.38,1.34,1.34,0,0,0,0-1.89l-1.06-1.06,5.45-5.44,6.66,6.66v.78a4,4,0,0,1-4,4Z"/>
 <path d="M9.33,13.33a4,4,0,0,0,3.93-4.78,4.08,4.08,0,0,0-1.1-2.05A4,4,0,0,0,7.8,5.64,4,4,0,0,0,6,7.11a4,4,0,0,0,3.32,6.22ZM9.33,8a1.37,1.37,0,0,1,.74.22,1.46,1.46,0,0,1,.5.6,1.35,1.35,0,0,1,.07.77,1.3,1.3,0,0,1-1.05,1.05,1.35,1.35,0,0,1-.77-.07,1.46,1.46,0,0,1-.6-.5A1.37,1.37,0,0,1,8,9.33,1.33,1.33,0,0,1,9.33,8Z"/>
</svg>