<svg xmlns="http://www.w3.org/2000/svg" viewBox="0 0 26.7 21.33">
 <path class="cls-1" d="M25.35,11.79a1.28,1.28,0,0,0-.46-.81,1.26,1.26,0,0,0-.87-.31H18.68a1.39,1.39,0,0,0,.57-.12,1.31,1.31,0,0,0,.46-.35A1.22,1.22,0,0,0,20,9.7a1.27,1.27,0,0,0,0-.58l-1.34-8a1.31,1.31,0,0,0-.46-.81A1.36,1.36,0,0,0,17.35,0h-8a1.36,1.36,0,0,0-.87.31A1.31,1.31,0,0,0,8,1.12l-1.34,8a1.22,1.22,0,0,0,0,.57A1.26,1.26,0,0,0,7,10.2a1.31,1.31,0,0,0,.46.35,1.39,1.39,0,0,0,.57.12H2.68a1.26,1.26,0,0,0-.87.31,1.28,1.28,0,0,0-.46.81L0,19.79a1.37,1.37,0,0,0,0,.57,1.39,1.39,0,0,0,.27.51,1.53,1.53,0,0,0,.46.34,1.27,1.27,0,0,0,.57.12H12a1.3,1.3,0,0,0,.55-.12,1.41,1.41,0,0,0,.46-.34,1.26,1.26,0,0,0,.27-.51,1.23,1.23,0,0,0,0-.57l-1.34-8a1.34,1.34,0,0,0-.45-.81,1.36,1.36,0,0,0-.87-.31H16a1.3,1.3,0,0,0-.88.31,1.33,1.33,0,0,0-.46.81l-1.33,8a1.37,1.37,0,0,0,0,.57,1.41,1.41,0,0,0,.28.51,1.32,1.32,0,0,0,.46.34,1.23,1.23,0,0,0,.56.12h4a1.33,1.33,0,1,0,0-2.66H16.26l.89-5.34h5.73l.9,5.34h-1.1a1.33,1.33,0,0,0,0,2.66h2.67a1.2,1.2,0,0,0,.56-.11,1.35,1.35,0,0,0,.47-.35,1.39,1.39,0,0,0,.27-.51,1.37,1.37,0,0,0,0-.57ZM2.92,18.67l.9-5.34H9.55l.89,5.34ZM9.59,8l.89-5.33h5.74L17.11,8Z"/>
</svg>