<svg xmlns="http://www.w3.org/2000/svg" viewBox="0 0 17.18 19.65">
 <path d="M15.27,10.4,9.09,16.59a4.25,4.25,0,0,1-6-6l8-8a2.56,2.56,0,0,1,3.54,0,2.51,2.51,0,0,1,0,3.54L7.73,13a.81.81,0,0,1-.24.17.73.73,0,0,1-.29.07.63.63,0,0,1-.3,0,.64.64,0,0,1-.25-.15.81.81,0,0,1-.17-.24.62.62,0,0,1-.07-.29.78.78,0,0,1,0-.3A.82.82,0,0,1,6.61,12l5.13-5.12a1,1,0,0,0,.3-.71,1,1,0,0,0-1.72-.71L5.19,10.58a2.73,2.73,0,0,0-.81,1.94,2.73,2.73,0,0,0,.81,2,2.82,2.82,0,0,0,3.89,0L16,7.57A4.5,4.5,0,0,0,9.61,1.21l-8,8A6.25,6.25,0,0,0,10.5,18l6.19-6.18a1.19,1.19,0,0,0,.22-.33,1,1,0,0,0,.08-.38,1.09,1.09,0,0,0-.08-.39,1,1,0,0,0-.22-.32.87.87,0,0,0-.32-.22,1.09,1.09,0,0,0-.39-.08,1,1,0,0,0-.38.08.91.91,0,0,0-.33.22Z"/>
</svg>