<svg xmlns="http://www.w3.org/2000/svg" viewBox="0 0 18.86 18.67">
 <path d="M17.53,16H8.19a1.34,1.34,0,0,1-1.33-1.2l.43-4.4,3.93-1.07a1.43,1.43,0,0,0,.84-.65,1.35,1.35,0,0,0,.13-1,1.36,1.36,0,0,0-.64-.84,1.43,1.43,0,0,0-1.05-.14L7.58,7.5l.61-6a1.34,1.34,0,0,0-.29-1A1.36,1.36,0,0,0,6,.3a1.34,1.34,0,0,0-.48.91L4.82,8.34l-3.65,1a1.3,1.3,0,0,0-.89.52,1.31,1.31,0,0,0-.27,1,1.34,1.34,0,0,0,.52.89,1.37,1.37,0,0,0,1,.27,1.09,1.09,0,0,0,.36,0l2.66-.76-.36,3.42a4,4,0,0,0,4,4h9.34a1.33,1.33,0,0,0,0-2.66Z"/>
</svg>