<svg xmlns="http://www.w3.org/2000/svg" viewBox="0 0 29.44 7.04">
 <path d="M14.72,0a3.5,3.5,0,0,0-1.35.27,3.49,3.49,0,0,0-1.9,1.9A3.53,3.53,0,0,0,12.23,6a3.64,3.64,0,0,0,1.14.77A3.68,3.68,0,0,0,14.72,7a3.52,3.52,0,1,0,0-7ZM3.52,0A3.5,3.5,0,0,0,2.17.27a3.49,3.49,0,0,0-1.9,1.9A3.53,3.53,0,0,0,1,6a3.64,3.64,0,0,0,1.14.77A3.68,3.68,0,0,0,3.52,7a3.52,3.52,0,1,0,0-7Zm22.4,0a3.5,3.5,0,0,0-1.35.27,3.49,3.49,0,0,0-1.9,1.9A3.53,3.53,0,0,0,23.43,6a3.64,3.64,0,0,0,1.14.77A3.68,3.68,0,0,0,25.92,7a3.52,3.52,0,1,0,0-7Z"/>
</svg>