<svg xmlns="http://www.w3.org/2000/svg" viewBox="0 0 26.67 26.67">
 <path d="M26.63,19.7a1.3,1.3,0,0,0-.25-.53,1.43,1.43,0,0,0-.45-.36L20.6,16.14a1.34,1.34,0,0,0-.81-.12,1.28,1.28,0,0,0-.73.37l-2.24,2.24C13.61,18.11,8.56,13.05,8,9.84l2.24-2.23a1.35,1.35,0,0,0,.25-1.54L7.86.74A1.24,1.24,0,0,0,7.49.29,1.35,1.35,0,0,0,6.39,0a1.24,1.24,0,0,0-.52.24l-5.34,4a1.28,1.28,0,0,0-.39.47A1.35,1.35,0,0,0,0,5.33C0,18.09,8.57,26.67,21.33,26.67a1.31,1.31,0,0,0,1.07-.54l4-5.33a1.34,1.34,0,0,0,.24-.53A1.22,1.22,0,0,0,26.63,19.7Zm-6,4.29C10.09,23.71,3,16.58,2.68,6L6.19,3.36l1.52,3-2,2a1.42,1.42,0,0,0-.29.43,1.49,1.49,0,0,0-.1.51c0,4.71,7.29,12,12,12a1.34,1.34,0,0,0,1-.39l2-2,3,1.52Z"/>
</svg>