<svg xmlns="http://www.w3.org/2000/svg" viewBox="0 0 24 24">
 <path d="M24,9.33a5.32,5.32,0,0,0-4-5.14V1.33a1.31,1.31,0,0,0-.15-.61,1.31,1.31,0,0,0-.42-.48A1.43,1.43,0,0,0,18.84,0a1.35,1.35,0,0,0-.63.07L6.57,4.31,1.41,4a1.36,1.36,0,0,0-.53.07,1.42,1.42,0,0,0-.47.29,1.32,1.32,0,0,0-.3.44A1.23,1.23,0,0,0,0,5.33v9.34a1.29,1.29,0,0,0,.12.54,1.39,1.39,0,0,0,.33.46,1.47,1.47,0,0,0,.49.27,1.47,1.47,0,0,0,.55.05l1.75-.22,1.25,7.12a1.32,1.32,0,0,0,.47.8,1.36,1.36,0,0,0,.87.31h4.84a1.38,1.38,0,0,0,.56-.12,1.32,1.32,0,0,0,.46-.34A1.3,1.3,0,0,0,12,22.45l-1-5.86,7.3,2.08h.36a1.33,1.33,0,0,0,.94-.39,1.36,1.36,0,0,0,.39-1V14.48a5.4,5.4,0,0,0,2.88-1.89A5.34,5.34,0,0,0,24,9.33ZM2.67,6.75l2.66.14v5.94l-2.66.33ZM9.09,21.33H6.93l-1-5.89.68-.08,1.6.44Zm8.24-5.76-7.26-2a1.32,1.32,0,0,0-.74-.23L8,13V6.67l9.33-3.39Zm2.67-4V7a2.63,2.63,0,0,1,1,1,2.66,2.66,0,0,1,0,2.64,2.73,2.73,0,0,1-1,1Z"/>
</svg>