<svg xmlns="http://www.w3.org/2000/svg" viewBox="0 0 24.04 25.33">
 <path d="M18.68,14.67A5.39,5.39,0,0,0,17,15l-1.92-2.29L17,10.37a5.41,5.41,0,0,0,1.68.3,5.34,5.34,0,1,0-3.93-1.76l-2,2.42H10.5A5.4,5.4,0,0,0,8.33,8.25,5.34,5.34,0,1,0,4.66,18a5.34,5.34,0,0,0,5.84-4h2.22l2,2.43a5.31,5.31,0,0,0-.35,6.71,5.35,5.35,0,0,0,6.49,1.73,5.33,5.33,0,0,0-2.21-10.2Zm-13.33.66a2.61,2.61,0,0,1-1.48-.45,2.65,2.65,0,0,1-1.13-2.73,2.59,2.59,0,0,1,.73-1.37,2.63,2.63,0,0,1,1.36-.73,2.66,2.66,0,0,1,2.74,1.14,2.66,2.66,0,0,1-2.22,4.14ZM18.68,2.67a2.64,2.64,0,0,1,1.49.45A2.65,2.65,0,0,1,21.3,5.85,2.66,2.66,0,0,1,19.2,8a2.71,2.71,0,0,1-1.54-.15,2.67,2.67,0,0,1-1.19-1A2.58,2.58,0,0,1,16,5.33a2.66,2.66,0,0,1,2.66-2.66Zm0,20a2.71,2.71,0,0,1-1.48-.45,2.67,2.67,0,0,1-1-1.2,2.68,2.68,0,0,1,.58-2.91,2.74,2.74,0,0,1,1.36-.73,2.7,2.7,0,0,1,2.74,1.14,2.67,2.67,0,0,1-2.22,4.15Z"/>
</svg>