<svg xmlns="http://www.w3.org/2000/svg" viewBox="0 0 26.5 26.6">
 <path d="M25.3,19.71l-2.76-2.82a4.09,4.09,0,0,0-2.15-1.08,4.13,4.13,0,0,0-2.38.32l-1.2-1.2a9.32,9.32,0,1,0-1.88,1.88L16.11,18a4.06,4.06,0,0,0-.39,2.42,4,4,0,0,0,1.1,2.2l2.83,2.82a4,4,0,0,0,5.65,0,4.06,4.06,0,0,0,.89-1.31,4,4,0,0,0,0-3.1A4.06,4.06,0,0,0,25.3,19.71ZM14,14.06a6.69,6.69,0,0,1-3.41,1.82,6.76,6.76,0,0,1-3.85-.38A6.67,6.67,0,1,1,14,4.62a6.67,6.67,0,0,1,0,9.44Zm9.43,9.43a1.42,1.42,0,0,1-.43.29,1.34,1.34,0,0,1-.52.1,1.29,1.29,0,0,1-.51-.1,1.42,1.42,0,0,1-.43-.29L18.7,20.66a1.13,1.13,0,0,1-.29-.43,1.35,1.35,0,0,1-.11-.52,1.3,1.3,0,0,1,.11-.51,1.13,1.13,0,0,1,.29-.43,1.28,1.28,0,0,1,.43-.3,1.55,1.55,0,0,1,.52-.1,1.49,1.49,0,0,1,.51.1,1.28,1.28,0,0,1,.43.3l2.83,2.82a1.46,1.46,0,0,1,.29.44,1.35,1.35,0,0,1,0,1A1.6,1.6,0,0,1,23.42,23.49Z"/>
</svg>