<svg aria-hidden="true" style="position: absolute; width: 0; height: 0; overflow: hidden;" version="1.1"
 xmlns="http://www.w3.org/2000/svg"
 xmlns:xlink="http://www.w3.org/1999/xlink">
 <defs>
  <symbol id="icon-arrow" viewBox="0 0 50 32">
   <path fill="currentColor" d="M25.289 32c-0.013 0-0.029 0-0.045 0-0.682 0-1.331-0.14-1.921-0.391l0.032 0.012c-0.645-0.322-1.187-0.756-1.624-1.281l-0.007-0.008-20.246-21.194c-0.916-0.985-1.479-2.31-1.479-3.766 0-0.009 0-0.018 0-0.027v0.001c0.001-1.464 0.563-2.797 1.482-3.795l-0.004 0.004c0.914-0.96 2.201-1.557 3.628-1.557 0.058 0 0.115 0.001 0.172 0.003l-0.008-0c0.035-0.001 0.075-0.001 0.116-0.001 1.441 0 2.744 0.596 3.674 1.555l0.001 0.001 16.227 17.592 16.645-17.517c0.863-0.802 2.023-1.294 3.299-1.294 1.407 0 2.675 0.599 3.561 1.556l0.003 0.003c0.884 0.929 1.44 2.178 1.478 3.557l0 0.007c0.005 0.092 0.009 0.2 0.009 0.309 0 1.323-0.461 2.537-1.23 3.493l0.008-0.011-20.209 21.081c-0.881 0.99-2.144 1.624-3.556 1.668l-0.008 0z"></path>
  </symbol>
  <symbol id="icon-bag" viewBox="0 0 32 32">
   <path fill="currentColor" d="M30.227 7.107h-5.333v-5.333c0 0 0-0 0-0 0-0.979-0.794-1.773-1.773-1.773-0.005 0-0.009 0-0.014 0h-14.213c-0.004-0-0.009-0-0.013-0-0.979 0-1.773 0.794-1.773 1.773 0 0 0 0 0 0v0 5.333h-5.333c0 0-0 0-0 0-0.979 0-1.773 0.794-1.773 1.773 0 0.005 0 0.009 0 0.014v-0.001 21.333c0 0.979 0.794 1.773 1.773 1.773v0h5.333c0.046 0.004 0.1 0.007 0.154 0.007 0.987 0 1.787-0.8 1.787-1.787s-0.8-1.787-1.787-1.787c-0.054 0-0.108 0.002-0.161 0.007l0.007-0h-3.547v-8.88h7.107v1.773c0 0.979 0.794 1.773 1.773 1.773h7.12c0.979 0 1.773-0.794 1.773-1.773v0-1.773h7.107v8.88h-14.213c-0.046-0.004-0.1-0.007-0.154-0.007-0.987 0-1.787 0.8-1.787 1.787s0.8 1.787 1.787 1.787c0.054 0 0.108-0.002 0.161-0.007l-0.007 0.001h16c0.979 0 1.773-0.794 1.773-1.773v0-21.333c0-0.004 0-0.009 0-0.013 0-0.979-0.794-1.773-1.773-1.773-0 0-0 0-0 0v0zM10.667 3.56h10.667v3.547h-10.667zM17.773 19.56h-3.547v-3.56h3.547zM21.333 16v-1.773c0-0.004 0-0.009 0-0.013 0-0.979-0.794-1.773-1.773-1.773-0 0-0 0-0 0h-7.12c0 0-0 0-0 0-0.979 0-1.773 0.794-1.773 1.773 0 0.005 0 0.009 0 0.014v-0.001 1.773h-7.107v-5.333h24.88v5.333z"></path>
  </symbol>
  <symbol id="icon-bitcoin" viewBox="0 0 25 32">
   <path fill="currentColor" d="M20.107 14.649c0.695-0.998 1.137-2.219 1.208-3.538l0.001-0.017c0.007-0.115 0.010-0.25 0.010-0.385 0-1.219-0.307-2.366-0.847-3.368l0.019 0.038c-1.208-2.281-3.562-3.811-6.274-3.822h-0.002v-1.778c0-0.003 0-0.007 0-0.010 0-0.488-0.197-0.931-0.516-1.252l0 0c-0.322-0.325-0.769-0.526-1.262-0.526s-0.94 0.201-1.262 0.526l-0 0c-0.319 0.321-0.516 0.764-0.516 1.252 0 0.004 0 0.007 0 0.011v-0.001 1.778h-3.556v-1.778c0-0.003 0-0.007 0-0.010 0-0.488-0.197-0.931-0.516-1.252l0 0c-0.322-0.325-0.769-0.526-1.262-0.526s-0.94 0.201-1.262 0.526l-0 0c-0.319 0.321-0.516 0.764-0.516 1.252 0 0.004 0 0.007 0 0.011v-0.001 1.778h-1.778c-0.003-0-0.007-0-0.010-0-0.488 0-0.931 0.197-1.252 0.516l0-0c-0.325 0.322-0.526 0.769-0.526 1.262s0.201 0.94 0.526 1.262l0 0c0.321 0.319 0.764 0.516 1.252 0.516 0.004 0 0.007 0 0.011-0h1.777v17.778h-1.778c-0.003-0-0.007-0-0.010-0-0.488 0-0.931 0.197-1.252 0.516l0-0c-0.325 0.322-0.526 0.769-0.526 1.262s0.201 0.94 0.526 1.262l0 0c0.321 0.319 0.764 0.516 1.252 0.516 0.004 0 0.007 0 0.011-0h1.777v1.778c0 0.982 0.796 1.778 1.778 1.778v0c0.982 0 1.778-0.796 1.778-1.778v0-1.778h3.556v1.778c0 0.982 0.796 1.778 1.778 1.778s1.778-0.796 1.778-1.778v0-1.778h3.556c0.002 0 0.004 0 0.007 0 1.75 0 3.352-0.632 4.59-1.68l-0.010 0.009c1.246-1.058 2.118-2.524 2.412-4.188l0.006-0.043c0.065-0.36 0.102-0.775 0.102-1.198 0-1.335-0.368-2.585-1.008-3.652l0.018 0.032c-0.863-1.427-2.175-2.509-3.737-3.060l-0.050-0.015zM7.111 7.111h7.111c1.957 0.008 3.541 1.597 3.541 3.556 0 0.978-0.395 1.864-1.034 2.507l0-0c-0.641 0.644-1.527 1.045-2.506 1.049h-7.112zM17.778 24.889h-10.667v-7.111h10.667c1.964 0 3.556 1.592 3.556 3.556s-1.592 3.556-3.556 3.556v0z"></path>
  </symbol>
  <symbol id="icon-center-align" viewBox="0 0 32 32">
   <path fill="currentColor" d="M9 32h13.917c0.874-0.261 1.5-1.057 1.5-2s-0.626-1.739-1.485-1.996l-0.015-0.004h-13.917c-0.874 0.261-1.5 1.057-1.5 2s0.626 1.739 1.485 1.996l0.015 0.004zM30 0h-27.917c-0.874 0.261-1.5 1.057-1.5 2s0.626 1.739 1.485 1.996l0.015 0.004h27.917c0.874-0.261 1.5-1.057 1.5-2s-0.626-1.739-1.485-1.996l-0.015-0.004zM25.833 13.333c0.175 0.053 0.375 0.083 0.583 0.083 1.151 0 2.083-0.933 2.083-2.083s-0.933-2.083-2.083-2.083c-0.208 0-0.409 0.030-0.598 0.087l0.015-0.004h-19.583c-0.175-0.053-0.375-0.083-0.583-0.083-1.151 0-2.083 0.933-2.083 2.083s0.933 2.083 2.083 2.083c0.208 0 0.409-0.030 0.598-0.087l-0.015 0.004zM30 18.75h-27.917c-0.175-0.053-0.375-0.083-0.583-0.083-1.151 0-2.083 0.933-2.083 2.083s0.933 2.083 2.083 2.083c0.208 0 0.409-0.030 0.598-0.087l-0.015 0.004h27.917c0.874-0.261 1.5-1.057 1.5-2s-0.626-1.739-1.485-1.996l-0.015-0.004z"></path>
  </symbol>
  <symbol id="icon-chart2" viewBox="0 0 37 32">
   <path fill="currentColor" d="M5.352 23.918h-5.352v8.082h5.352z"></path>
   <path fill="currentColor" d="M16.057 12.464h-5.352v19.536h5.352z"></path>
   <path fill="currentColor" d="M26.761 0h-5.352v32h5.352z"></path>
   <path fill="currentColor" d="M37.466 18.867h-5.352v13.133h5.352z"></path>
  </symbol>
  <symbol id="icon-chart3" viewBox="0 0 37 32">
   <path fill="currentColor" d="M32.114 23.918h5.352v8.082h-5.352z"></path>
   <path fill="currentColor" d="M21.409 12.464h5.352v19.536h-5.352z"></path>
   <path fill="currentColor" d="M10.705 0h5.352v32h-5.352z"></path>
   <path fill="currentColor" d="M0 18.867h5.352v13.133h-5.352z"></path>
  </symbol>
  <symbol id="icon-chat" viewBox="0 0 32 32">
   <path fill="currentColor" d="M1.773 32c-0.001 0-0.001 0-0.002 0-0.234 0-0.458-0.044-0.664-0.124l0.012 0.004c-0.336-0.137-0.613-0.362-0.809-0.647l-0.004-0.006c-0.189-0.281-0.303-0.627-0.307-0.999v-28.454c0-0.979 0.794-1.773 1.773-1.773v0h28.453c0.979 0 1.773 0.794 1.773 1.773v0 5.333c0.004 0.046 0.007 0.1 0.007 0.154 0 0.987-0.8 1.787-1.787 1.787s-1.787-0.8-1.787-1.787c0-0.054 0.002-0.108 0.007-0.161l-0 0.007v-3.547h-24.88v22.187l3.547-3.84c0.171-0.18 0.375-0.328 0.601-0.435l0.012-0.005c0.202-0.085 0.436-0.134 0.683-0.134 0.023 0 0.045 0 0.067 0.001l-0.003-0h20v-7.107c-0.004-0.046-0.007-0.1-0.007-0.154 0-0.987 0.8-1.787 1.787-1.787s1.787 0.8 1.787 1.787c0 0.054-0.002 0.108-0.007 0.161l0.001-0.007v8.88c0 0.004 0 0.009 0 0.013 0 0.979-0.794 1.773-1.773 1.773-0 0-0 0-0 0h-21.027l-6.147 6.533c-0.167 0.176-0.366 0.32-0.588 0.422l-0.012 0.005c-0.207 0.093-0.449 0.147-0.703 0.147-0.001 0-0.002 0-0.003 0h0z"></path>
   <path fill="currentColor" d="M23.107 10.667h-14.213c-0.046 0.004-0.1 0.007-0.154 0.007-0.987 0-1.787-0.8-1.787-1.787s0.8-1.787 1.787-1.787c0.054 0 0.108 0.002 0.161 0.007l-0.007-0h14.213c0.046-0.004 0.1-0.007 0.154-0.007 0.987 0 1.787 0.8 1.787 1.787s-0.8 1.787-1.787 1.787c-0.054 0-0.108-0.002-0.161-0.007l0.007 0.001zM23.107 17.773h-14.213c-0.979 0-1.773-0.794-1.773-1.773s0.794-1.773 1.773-1.773v0h14.213c0.979 0 1.773 0.794 1.773 1.773s-0.794 1.773-1.773 1.773v0z"></path>
  </symbol>
  <symbol id="icon-check" viewBox="0 0 32 32">
   <path fill="currentColor" d="M16 32c-8.837 0-16-7.163-16-16s7.163-16 16-16c8.837 0 16 7.163 16 16v0c0 8.837-7.163 16-16 16v0zM16 3.342c-6.991 0-12.658 5.667-12.658 12.658s5.667 12.658 12.658 12.658c6.991 0 12.658-5.667 12.658-12.658v0c-0.040-6.974-5.683-12.618-12.654-12.658l-0.004-0z"></path>
   <path fill="currentColor" d="M13.476 22.276c-0.021 0.001-0.047 0.002-0.072 0.002-0.456 0-0.864-0.207-1.135-0.533l-0.002-0.002-3.378-3.342c-0.314-0.304-0.508-0.729-0.508-1.2s0.195-0.896 0.508-1.2l0-0c0.318-0.304 0.751-0.491 1.227-0.491s0.908 0.187 1.227 0.492l-0.001-0.001 2.133 2.133 7.2-7.111c0.237-0.125 0.517-0.198 0.815-0.198 0.982 0 1.778 0.796 1.778 1.778 0 0.265-0.058 0.516-0.162 0.742l0.005-0.011-8.444 8.409c-0.298 0.322-0.72 0.526-1.19 0.533l-0.001 0z"></path>
  </symbol>
  <symbol id="icon-check-fill" viewBox="0 0 32 32">
   <path fill="currentColor" d="M16 0c-0.011-0-0.024-0-0.036-0-8.837 0-16 7.163-16 16 0 7.746 5.504 14.206 12.814 15.683l0.103 0.017c0.927 0.191 1.993 0.3 3.084 0.3 8.837 0 16-7.163 16-16 0-8.824-7.143-15.979-15.962-16h-0.002zM25.1 12.14l-10 11.38c-0.159 0.182-0.352 0.33-0.569 0.435l-0.011 0.005c-0.202 0.113-0.443 0.18-0.7 0.18h-0.16c-0.005 0-0.010 0-0.015 0-0.47 0-0.899-0.174-1.227-0.462l0.002 0.002-5.38-4.76c-0.345-0.326-0.574-0.773-0.619-1.272l-0.001-0.008c-0.001-0.024-0.002-0.053-0.002-0.082 0-0.488 0.174-0.934 0.464-1.281l-0.003 0.003c0.346-0.385 0.845-0.626 1.401-0.626 0.476 0 0.91 0.177 1.241 0.468l-0.002-0.002 4 3.54 8.8-10c0.324-0.353 0.77-0.589 1.272-0.639l0.008-0.001c0.024-0.001 0.053-0.002 0.082-0.002 0.488 0 0.934 0.174 1.281 0.464l-0.003-0.003c0.349 0.331 0.579 0.785 0.62 1.293l0 0.007c0.002 0.033 0.003 0.072 0.003 0.112 0 0.472-0.176 0.902-0.465 1.23l0.002-0.002z"></path>
  </symbol>
  <symbol id="icon-close" viewBox="0 0 32 32">
   <path fill="currentColor" d="M21.863 10.137c-0.147-0.142-0.32-0.258-0.511-0.34l-0.011-0.004c-0.174-0.075-0.377-0.119-0.591-0.119-0.005 0-0.010 0-0.015 0h0.001c-0.004-0-0.009-0-0.014-0-0.217 0-0.424 0.044-0.613 0.123l0.010-0.004c-0.198 0.087-0.366 0.203-0.51 0.344l0-0-3.604 3.64-3.628-3.64c-0.277-0.24-0.641-0.386-1.038-0.386-0.877 0-1.589 0.711-1.589 1.589 0 0.398 0.146 0.762 0.388 1.040l-0.002-0.002 3.64 3.628-3.64 3.616c-0.141 0.143-0.257 0.312-0.34 0.499l-0.004 0.011c-0.075 0.178-0.119 0.385-0.119 0.602 0 0.005 0 0.010 0 0.015v-0.001c-0 0.004-0 0.009-0 0.014 0 0.213 0.044 0.416 0.122 0.601l-0.004-0.010c0.087 0.198 0.203 0.366 0.344 0.51l-0-0c0.141 0.149 0.31 0.269 0.5 0.352l0.010 0.004c0.183 0.071 0.394 0.114 0.615 0.119l0.002 0c0.218-0.004 0.426-0.047 0.617-0.123l-0.012 0.004c0.2-0.086 0.369-0.207 0.509-0.355l0.001-0.001 3.628-3.628 3.616 3.628c0.141 0.149 0.31 0.269 0.5 0.352l0.010 0.004c0.183 0.071 0.394 0.114 0.615 0.119l0.002 0c0.218-0.004 0.426-0.047 0.617-0.123l-0.012 0.004c0.383-0.181 0.685-0.482 0.861-0.855l0.005-0.011c0.071-0.179 0.114-0.386 0.119-0.603l0-0.002c-0.004-0.223-0.047-0.434-0.123-0.629l0.004 0.013c-0.086-0.2-0.207-0.369-0.355-0.509l-0.001-0.001-3.628-3.616 3.628-3.628c0.149-0.141 0.269-0.31 0.352-0.5l0.004-0.010c0.071-0.179 0.114-0.386 0.119-0.603l0-0.002c-0.004-0.223-0.047-0.434-0.123-0.629l0.004 0.013c-0.086-0.2-0.207-0.369-0.355-0.509l-0.001-0.001zM27.174 4.825c-2.879-2.973-6.907-4.818-11.367-4.818-2.16 0-4.219 0.433-6.095 1.217l0.104-0.039c-3.919 1.655-6.976 4.712-8.592 8.527l-0.039 0.105c-0.749 1.774-1.185 3.836-1.185 6 0 4.458 1.848 8.484 4.82 11.353l0.005 0.004c2.878 2.98 6.909 4.83 11.373 4.83 6.571 0 12.206-4.010 14.589-9.717l0.039-0.104c0.745-1.77 1.177-3.827 1.177-5.986 0-4.463-1.85-8.494-4.825-11.368l-0.005-0.004zM24.898 24.898c-2.29 2.293-5.455 3.711-8.951 3.711-6.987 0-12.651-5.664-12.651-12.651s5.664-12.651 12.651-12.651c6.987 0 12.65 5.664 12.651 12.65v0c0 0.029 0 0.064 0 0.099 0 1.71-0.349 3.339-0.979 4.819l0.030-0.080c-0.67 1.598-1.599 2.961-2.75 4.101l-0.001 0.001z"></path>
  </symbol>
  <symbol id="icon-close2" viewBox="0 0 32 32">
   <path fill="currentColor" d="M16 0c-8.837 0-16 7.163-16 16s7.163 16 16 16c8.837 0 16-7.163 16-16v0c0-8.837-7.163-16-16-16v0zM22 19.68c0.297 0.297 0.48 0.707 0.48 1.16 0 0.906-0.734 1.64-1.64 1.64-0.453 0-0.863-0.184-1.16-0.48v0l-3.68-3.76-3.68 3.76c-0.297 0.297-0.707 0.48-1.16 0.48-0.906 0-1.64-0.734-1.64-1.64 0-0.453 0.184-0.863 0.48-1.16v0l3.76-3.68-3.76-3.68c-0.297-0.297-0.48-0.707-0.48-1.16 0-0.906 0.734-1.64 1.64-1.64 0.453 0 0.863 0.184 1.16 0.48v0l3.68 3.76 3.68-3.76c0.297-0.297 0.707-0.48 1.16-0.48 0.906 0 1.64 0.734 1.64 1.64 0 0.453-0.184 0.863-0.48 1.16v0l-3.76 3.68z"></path>
  </symbol>
  <symbol id="icon-credit-card" viewBox="0 0 41 32">
   <path fill="currentColor" d="M38.856 0h-6.856c-0.059-0.005-0.128-0.009-0.198-0.009-1.268 0-2.297 1.028-2.297 2.297s1.028 2.297 2.297 2.297c0.070 0 0.139-0.003 0.207-0.009l-0.009 0.001h4.559v4.559h-31.983v-4.559h18.271c0.059 0.005 0.128 0.009 0.198 0.009 1.268 0 2.297-1.028 2.297-2.297s-1.028-2.297-2.297-2.297c-0.070 0-0.139 0.003-0.207 0.009l0.009-0.001h-20.568c-1.259 0-2.28 1.021-2.28 2.28v0 27.424c-0 0.005-0 0.011-0 0.017 0 1.259 1.021 2.28 2.28 2.28 0 0 0 0 0 0h36.576c0 0 0 0 0 0 1.259 0 2.28-1.021 2.28-2.28 0-0.006-0-0.012-0-0.018v0.001-27.424c0-1.259-1.021-2.28-2.28-2.28v0zM36.559 27.424h-31.983v-13.712h31.983z"></path>
   <path fill="currentColor" d="M18.288 25.144h13.712c1.18-0.105 2.099-1.090 2.099-2.288s-0.918-2.183-2.090-2.288l-0.009-0.001h-13.712c-0.059-0.005-0.128-0.009-0.198-0.009-1.268 0-2.297 1.028-2.297 2.297s1.028 2.297 2.297 2.297c0.070 0 0.139-0.003 0.207-0.009l-0.009 0.001z"></path>
  </symbol>
  <symbol id="icon-dollar-simbol" viewBox="0 0 32 32">
   <path fill="currentColor" d="M15.040 12.44h4.507c0.979 0 1.773-0.794 1.773-1.773s-0.794-1.773-1.773-1.773v0h-1.773v-1.787c-0.082-0.918-0.848-1.632-1.78-1.632s-1.698 0.714-1.78 1.626l-0.001 0.007v1.867c-1.101 0.232-2.031 0.841-2.672 1.682l-0.008 0.011c-0.55 0.731-0.88 1.654-0.88 2.654 0 2.434 1.958 4.41 4.384 4.44l0.003 0h1.92c0.123 0.012 0.236 0.045 0.339 0.096l-0.006-0.003c0.11 0.053 0.203 0.125 0.279 0.212l0.001 0.001c0.074 0.085 0.129 0.188 0.159 0.301l0.001 0.005c0.012 0.052 0.019 0.112 0.019 0.173s-0.007 0.121-0.020 0.179l0.001-0.005c-0.003 0.224-0.094 0.426-0.24 0.573l0-0c-0.148 0.148-0.349 0.243-0.571 0.253l-0.002 0h-4.48c-0.979 0-1.773 0.794-1.773 1.773s0.794 1.773 1.773 1.773v0h1.773v1.787c0.082 0.918 0.848 1.632 1.78 1.632s1.698-0.714 1.779-1.626l0-0.007v-1.867c1.099-0.235 2.026-0.849 2.658-1.695l0.008-0.012c0.552-0.739 0.883-1.671 0.883-2.68 0-0.136-0.006-0.271-0.018-0.404l0.001 0.017c-0.109-1.135-0.63-2.131-1.41-2.851l-0.003-0.003c-0.772-0.717-1.806-1.161-2.944-1.173l-0.002-0h-1.907c-0.136-0.003-0.263-0.032-0.38-0.083l0.007 0.003c-0.107-0.050-0.197-0.122-0.265-0.212l-0.001-0.002c-0.072-0.087-0.131-0.189-0.171-0.3l-0.002-0.007c-0.012-0.052-0.019-0.112-0.019-0.173s0.007-0.121 0.020-0.179l-0.001 0.005c0.021-0.448 0.379-0.806 0.825-0.827l0.002-0z"></path>
   <path fill="currentColor" d="M16 0c-8.837 0-16 7.163-16 16 0 5.217 2.496 9.85 6.36 12.771l0.040 0.029c2.64 1.997 5.979 3.198 9.597 3.198 1.997 0 3.909-0.366 5.673-1.035l-0.11 0.037c2.588-0.981 4.773-2.518 6.491-4.475l0.016-0.018c0.272-0.31 0.438-0.719 0.438-1.167 0-0.534-0.236-1.013-0.609-1.338l-0.002-0.002c-0.311-0.269-0.719-0.433-1.166-0.433-0.533 0-1.012 0.234-1.339 0.604l-0.002 0.002c-2.296 2.631-5.655 4.285-9.4 4.285-6.878 0-12.453-5.576-12.453-12.453s5.576-12.453 12.453-12.453c6.876 0 12.451 5.573 12.453 12.448v0c-0.002 0.845-0.085 1.67-0.24 2.469l0.013-0.082c-0.020 0.099-0.031 0.213-0.031 0.33 0 0.375 0.116 0.723 0.315 1.009l-0.004-0.006c0.262 0.396 0.672 0.675 1.15 0.759l0.010 0.002c0.099 0.020 0.213 0.031 0.33 0.031 0.375 0 0.723-0.116 1.009-0.315l-0.006 0.004c0.396-0.262 0.675-0.672 0.759-1.15l0.002-0.010c0.185-0.914 0.291-1.965 0.291-3.040 0-8.837-7.163-16-16-16-0.013 0-0.027 0-0.040 0h0.002z"></path>
  </symbol>
  <symbol id="icon-dollar-simbol2" viewBox="0 0 32 32">
   <path fill="currentColor" d="M15.040 12.44h4.507c0.979 0 1.773-0.794 1.773-1.773s-0.794-1.773-1.773-1.773v0h-1.773v-1.787c-0.082-0.918-0.848-1.632-1.78-1.632s-1.698 0.714-1.78 1.626l-0.001 0.007v1.867c-1.101 0.232-2.031 0.841-2.672 1.682l-0.008 0.011c-0.55 0.731-0.88 1.654-0.88 2.654 0 2.434 1.958 4.41 4.384 4.44l0.003 0h1.92c0.123 0.012 0.236 0.045 0.339 0.096l-0.006-0.003c0.11 0.053 0.203 0.125 0.279 0.212l0.001 0.001c0.074 0.085 0.129 0.188 0.159 0.301l0.001 0.005c0.012 0.052 0.019 0.112 0.019 0.173s-0.007 0.121-0.020 0.179l0.001-0.005c0 0.001 0 0.001 0 0.002 0 0.224-0.092 0.426-0.24 0.571l-0 0c-0.148 0.148-0.349 0.243-0.571 0.253l-0.002 0h-4.48c-0.979 0-1.773 0.794-1.773 1.773s0.794 1.773 1.773 1.773v0h1.773v1.787c0.082 0.918 0.848 1.632 1.78 1.632s1.698-0.714 1.779-1.626l0-0.007v-1.867c1.099-0.235 2.026-0.849 2.658-1.695l0.008-0.012c0.552-0.739 0.883-1.671 0.883-2.68 0-0.136-0.006-0.271-0.018-0.404l0.001 0.017c-0.109-1.135-0.63-2.131-1.41-2.851l-0.003-0.003c-0.772-0.717-1.806-1.161-2.944-1.173l-0.002-0h-1.907c-0.136-0.003-0.263-0.032-0.38-0.083l0.007 0.003c-0.107-0.050-0.197-0.122-0.265-0.212l-0.001-0.002c-0.072-0.087-0.131-0.189-0.171-0.3l-0.002-0.007c-0.012-0.052-0.019-0.112-0.019-0.173s0.007-0.121 0.020-0.179l-0.001 0.005c0.021-0.448 0.379-0.806 0.825-0.827l0.002-0z"></path>
   <path fill="currentColor" d="M16 0c-0 0-0 0-0 0-8.837 0-16 7.163-16 16s7.163 16 16 16c4.806 0 9.118-2.119 12.051-5.475l0.016-0.019c0.272-0.31 0.438-0.719 0.438-1.167 0-0.534-0.236-1.013-0.609-1.338l-0.002-0.002c-0.311-0.269-0.719-0.433-1.166-0.433-0.533 0-1.012 0.234-1.339 0.604l-0.002 0.002c-2.296 2.631-5.655 4.285-9.4 4.285-6.878 0-12.453-5.576-12.453-12.453s5.576-12.453 12.453-12.453c6.876 0 12.451 5.573 12.453 12.448v0c-0.002 0.845-0.085 1.67-0.24 2.469l0.013-0.082c-0.020 0.099-0.031 0.213-0.031 0.33 0 0.375 0.116 0.723 0.315 1.009l-0.004-0.006c0.262 0.396 0.672 0.675 1.15 0.759l0.010 0.002c0.099 0.020 0.213 0.031 0.33 0.031 0.375 0 0.723-0.116 1.009-0.315l-0.006 0.004c0.396-0.262 0.675-0.672 0.759-1.15l0.002-0.010c0.185-0.914 0.291-1.965 0.291-3.040 0-8.837-7.163-16-16-16-0.013 0-0.027 0-0.040 0h0.002z"></path>
  </symbol>
  <symbol id="icon-double-check" viewBox="0 0 32 32">
   <path fill="currentColor" d="M9.846 32c-0.643-0.029-1.218-0.3-1.641-0.722l0 0-7.483-7.401c-0.45-0.446-0.728-1.064-0.728-1.748s0.278-1.302 0.728-1.748l0-0c0.45-0.442 1.067-0.715 1.748-0.715s1.298 0.273 1.748 0.715l-0-0 5.941 5.957 18.051-12.341c0.43-0.378 0.998-0.608 1.62-0.608 1.359 0 2.462 1.102 2.462 2.462 0 0.957-0.546 1.786-1.344 2.194l-0.014 0.006-19.692 13.506c-0.39 0.273-0.873 0.438-1.394 0.443h-0.001z"></path>
   <path fill="currentColor" d="M9.846 18.429c-0.643-0.029-1.218-0.3-1.641-0.722l0 0-7.483-7.401c-0.449-0.444-0.727-1.059-0.727-1.739s0.278-1.296 0.727-1.739l0-0c0.446-0.45 1.064-0.728 1.748-0.728s1.302 0.278 1.748 0.728l5.941 5.941 18.051-12.341c0.39-0.271 0.874-0.432 1.395-0.432 1.363 0 2.467 1.105 2.467 2.467 0 0.841-0.421 1.584-1.064 2.030l-0.008 0.005-19.742 13.555c-0.365 0.239-0.811 0.381-1.291 0.381-0.042 0-0.085-0.001-0.126-0.003l0.006 0z"></path>
  </symbol>
  <symbol id="icon-draft" viewBox="0 0 25 32">
   <path fill="currentColor" d="M24.615 24.615v3.692c0 2.039-1.653 3.692-3.692 3.692v0h-17.231c-2.039 0-3.692-1.653-3.692-3.692v0-24.615c0-2.039 1.653-3.692 3.692-3.692v0h3.692c0.002 0 0.005-0 0.007-0 0.338 0 0.644 0.136 0.867 0.357l-0-0c0.221 0.222 0.357 0.529 0.357 0.867 0 0.002 0 0.005-0 0.008v-0c0 0.002 0 0.005 0 0.007 0 0.338-0.136 0.644-0.357 0.867l0-0c-0.222 0.221-0.529 0.357-0.867 0.357-0.003 0-0.005 0-0.008-0h-3.692c-0.68 0-1.231 0.551-1.231 1.231v0 24.615c0 0.68 0.551 1.231 1.231 1.231v0h17.231c0.68 0 1.231-0.551 1.231-1.231v0-3.692c0-0.68 0.551-1.231 1.231-1.231s1.231 0.551 1.231 1.231v0zM24.615 11.077v7.385c0 0.68-0.551 1.231-1.231 1.231s-1.231-0.551-1.231-1.231v0-6.154h-6.154c-2.039 0-3.692-1.653-3.692-3.692v0-7.385c0.002-0.169 0.038-0.33 0.102-0.476l-0.003 0.008c0.128-0.302 0.363-0.537 0.657-0.662l0.008-0.003c0.138-0.058 0.299-0.092 0.468-0.092s0.329 0.034 0.476 0.095l-0.008-0.003c0.156 0.066 0.291 0.153 0.407 0.259l-0.001-0.001 9.846 9.846c0.105 0.115 0.192 0.25 0.255 0.397l0.003 0.009c0.060 0.138 0.096 0.298 0.098 0.467v0.001zM16 9.846h4.418l-5.649-5.649v4.418c0 0.68 0.551 1.231 1.231 1.231v0z"></path>
  </symbol>
  <symbol id="icon-edit-bold" viewBox="0 0 24 32">
   <path fill="currentColor" d="M20.66 16c2.046-1.663 3.343-4.18 3.343-7 0-4.971-4.029-9-9-9-0.001 0-0.002 0-0.003 0h-15v4h2v24h-2v4h15c0.001 0 0.002 0 0.003 0 4.971 0 9-4.029 9-9 0-2.82-1.297-5.337-3.327-6.987l-0.017-0.013zM15 28h-9v-10h9c2.761 0 5 2.239 5 5s-2.239 5-5 5v0zM15 14h-9v-10h9c2.761 0 5 2.239 5 5s-2.239 5-5 5v0z"></path>
  </symbol>
  <symbol id="icon-ethereum" viewBox="0 0 20 32">
   <path fill="currentColor" d="M19.746 16.324c0.007-0.051 0.012-0.11 0.012-0.17s-0.004-0.119-0.012-0.176l0.001 0.007v-0.432c-0.027-0.069-0.053-0.125-0.082-0.179l0.005 0.010-8.632-14.798c-0.039-0.073-0.091-0.135-0.153-0.184l-0.001-0.001c-0.11-0.129-0.25-0.229-0.409-0.29l-0.007-0.002c-0.145-0.068-0.314-0.107-0.493-0.107s-0.348 0.040-0.501 0.11l0.007-0.003c-0.166 0.064-0.306 0.164-0.415 0.291l-0.001 0.001c-0.059 0.054-0.11 0.115-0.152 0.181l-0.002 0.004-8.632 14.829c-0.001 0.025-0.002 0.055-0.002 0.085s0.001 0.059 0.002 0.089l-0-0.004v0.123c-0.073 0.089-0.135 0.19-0.182 0.3l-0.003 0.008c-0.007 0.049-0.012 0.105-0.012 0.162s0.004 0.113 0.012 0.168l-0.001-0.006c-0.007 0.018-0.012 0.039-0.012 0.062s0.004 0.043 0.012 0.063l-0-0.001c-0.003 0.025-0.005 0.055-0.005 0.085s0.002 0.059 0.005 0.088l-0-0.004 8.632 14.798c0.12 0.178 0.275 0.323 0.456 0.428l0.007 0.004c0.172 0.105 0.379 0.168 0.601 0.17h0.001c0.227-0.001 0.44-0.064 0.622-0.173l-0.006 0.003c0.164-0.119 0.295-0.275 0.382-0.455l0.003-0.007 8.632-14.798c0.003-0.025 0.004-0.055 0.004-0.085s-0.002-0.059-0.005-0.088l0 0.004zM4.331 15.985l4.316-1.819v3.699zM8.647 11.484l-4.455 1.911 4.455-7.707zM11.114 14.166l4.301 1.819-4.301 1.834zM11.114 11.484v-5.734l4.439 7.707zM9.881 28.316l-5.688-9.742 5.195 2.22c0.139 0.068 0.302 0.108 0.474 0.108 0.007 0 0.013-0 0.020-0h-0.001c0.002 0 0.005 0 0.007 0 0.171 0 0.333-0.040 0.477-0.111l-0.006 0.003 5.195-2.22z"></path>
  </symbol>
  <symbol id="icon-expand" viewBox="0 0 32 32">
   <path fill="currentColor" d="M31.415 0.585c-0.361-0.361-0.859-0.585-1.41-0.585h-7.996c-0.052-0.005-0.112-0.007-0.174-0.007-1.11 0-2.010 0.9-2.010 2.010s0.9 2.010 2.010 2.010c0.061 0 0.122-0.003 0.181-0.008l-0.008 0.001h3.151l-6.571 6.571c-0.368 0.367-0.596 0.874-0.596 1.435 0 0.272 0.054 0.532 0.151 0.769l-0.005-0.014c0.165 0.372 0.422 0.677 0.743 0.895l0.007 0.005c0.306 0.207 0.684 0.33 1.090 0.33 0.007 0 0.014-0 0.021-0h-0.001c0.553-0.003 1.052-0.232 1.41-0.6l0-0 6.601-6.601v3.21c0 1.102 0.893 1.995 1.995 1.995s1.995-0.893 1.995-1.995v0-8.011c-0-0.551-0.224-1.049-0.585-1.41l-0-0z"></path>
   <path fill="currentColor" d="M12.002 18.108c-0.027-0.001-0.059-0.002-0.091-0.002-0.495 0-0.946 0.183-1.292 0.484l0.002-0.002-6.616 6.571v-3.151c0.005-0.052 0.008-0.112 0.008-0.174 0-1.11-0.9-2.010-2.010-2.010s-2.010 0.9-2.010 2.010c0 0.061 0.003 0.122 0.008 0.181l-0.001-0.008v7.996c0.006 0.265 0.055 0.517 0.14 0.752l-0.005-0.017c0.111 0.237 0.251 0.44 0.421 0.616l-0.001-0.001s0 0 0 0 0 0 0 0c0.068 0.077 0.141 0.146 0.221 0.207l0.004 0.003c0.077 0.050 0.166 0.095 0.26 0.132l0.010 0.003h0.135c0.209 0.085 0.451 0.135 0.704 0.135 0 0 0 0 0.001 0h8.116c1.102 0 1.995-0.893 1.995-1.995s-0.893-1.995-1.995-1.995v0h-3.21l6.601-6.601c0.3-0.343 0.482-0.795 0.482-1.289 0-0.032-0.001-0.064-0.002-0.095l0 0.004c-0.124-0.956-0.905-1.696-1.87-1.755l-0.006-0z"></path>
  </symbol>
  <symbol id="icon-favorite" viewBox="0 0 34 32">
   <path fill="currentColor" d="M27.223 32l-9.753-7.077c-0.179-0.131-0.404-0.209-0.647-0.209s-0.468 0.078-0.65 0.211l0.003-0.002-9.753 7.077 3.726-11.455c0.035-0.103 0.055-0.222 0.055-0.346 0-0.365-0.177-0.689-0.45-0.891l-0.003-0.002-9.753-7.077h12.053c0.49-0.002 0.905-0.323 1.048-0.766l0.002-0.008 3.726-11.455 3.715 11.455c0.145 0.453 0.563 0.775 1.055 0.775 0.018 0 0.035-0 0.053-0.001l-0.003 0h11.997l-9.742 7.077c-0.281 0.203-0.462 0.53-0.462 0.899 0 0.121 0.020 0.238 0.055 0.347l-0.002-0.008zM16.829 22.502c0 0 0 0 0.001 0 0.731 0 1.407 0.236 1.955 0.637l-0.009-0.007 4.246 3.085-1.625-4.987c-0.104-0.308-0.164-0.662-0.164-1.030 0-1.1 0.535-2.075 1.36-2.679l0.009-0.007 4.246-3.074h-5.241c-0.004 0-0.008 0-0.012 0-1.46 0-2.7-0.944-3.143-2.254l-0.007-0.023-1.614-5.009-1.625 5.009c-0.443 1.344-1.685 2.297-3.151 2.3h-5.241l4.246 3.052c0.834 0.61 1.369 1.585 1.369 2.685 0 0.368-0.060 0.723-0.171 1.054l0.007-0.023-1.625 4.987 4.235-3.085c0.539-0.394 1.214-0.63 1.945-0.63 0.004 0 0.008 0 0.012 0h-0.001z"></path>
  </symbol>
  <symbol id="icon-file" viewBox="0 0 28 32">
   <path fill="currentColor" d="M28 9.56l-7.053-8.88c-0.17-0.209-0.378-0.38-0.616-0.502l-0.011-0.005c-0.223-0.106-0.483-0.169-0.759-0.173h-17.788c-0.979 0-1.773 0.794-1.773 1.773v0 8.893c0.082 0.918 0.848 1.632 1.78 1.632s1.698-0.714 1.78-1.626l0.001-0.007v-7.107h12.44v7.107c0 0.979 0.794 1.773 1.773 1.773v0h7.12v16h-21.333v-8.88c0.004-0.046 0.007-0.1 0.007-0.154 0-0.987-0.8-1.787-1.787-1.787s-1.787 0.8-1.787 1.787c0 0.054 0.002 0.108 0.007 0.161l-0.001-0.007v10.667c0 0.979 0.794 1.773 1.773 1.773h24.893c0.979 0 1.773-0.794 1.773-1.773v0-19.56c-0.016-0.426-0.18-0.812-0.442-1.109l0.002 0.002zM19.507 4.627l3.413 4.267h-3.36z"></path>
   <path fill="currentColor" d="M14.227 14.227c-0.004-0-0.009-0-0.013-0-0.979 0-1.773 0.794-1.773 1.773 0 0 0 0 0 0v0 1.773h-1.773c-0.918 0.082-1.632 0.848-1.632 1.78s0.714 1.698 1.626 1.779l0.007 0h1.773v1.773c-0.004 0.046-0.007 0.1-0.007 0.154 0 0.987 0.8 1.787 1.787 1.787s1.787-0.8 1.787-1.787c0-0.054-0.002-0.108-0.007-0.161l0.001 0.007v-1.773h1.773c0.046 0.004 0.1 0.007 0.154 0.007 0.987 0 1.787-0.8 1.787-1.787s-0.8-1.787-1.787-1.787c-0.054 0-0.108 0.002-0.161 0.007l0.007-0h-1.773v-1.773c0-0.979-0.794-1.773-1.773-1.773v0z"></path>
  </symbol>
  <symbol id="icon-font-size" viewBox="0 0 32 32">
   <path fill="currentColor" d="M14 4h6v2h4v-6h-24v6h4v-2h6v24h-4v4h12v-4h-4z"></path>
   <path fill="currentColor" d="M28 16h4l-6-6-6 6h4v8h-4l6 6 6-6h-4z"></path>
  </symbol>
  <symbol id="icon-graph" viewBox="0 0 32 32">
   <path fill="currentColor" d="M23.773 9.8c0.824 0.548 1.837 0.875 2.927 0.875s2.102-0.327 2.946-0.887l-0.020 0.012c0.871-0.592 1.549-1.407 1.96-2.365l0.013-0.035c0.252-0.598 0.399-1.294 0.399-2.024 0-0.374-0.038-0.739-0.112-1.091l0.006 0.035c-0.492-2.479-2.649-4.322-5.236-4.322-0.732 0-1.43 0.148-2.065 0.415l0.035-0.013c-0.993 0.424-1.808 1.103-2.388 1.954l-0.012 0.019c-0.56 0.831-0.893 1.854-0.893 2.955 0 0.002 0 0.004 0 0.005v-0c0.002 0.573 0.1 1.123 0.277 1.635l-0.011-0.035-2.76 2.787c-0.812-0.514-1.8-0.819-2.86-0.819-0.209 0-0.415 0.012-0.618 0.035l0.025-0.002c-1.257 0.151-2.36 0.719-3.186 1.559l-0.001 0.001-1.64-0.533c0.065-0.319 0.104-0.688 0.107-1.065v-0.002c0-0.009 0-0.019 0-0.029 0-1.253-0.432-2.405-1.155-3.315l0.008 0.011c-0.985-1.259-2.504-2.060-4.211-2.060-0.819 0-1.595 0.185-2.288 0.514l0.032-0.014c-1.708 0.912-2.851 2.683-2.851 4.721 0 2.946 2.388 5.333 5.333 5.333 1.159 0 2.232-0.37 3.107-0.998l-0.016 0.011 2.040 0.68c-0.006 0.072-0.010 0.156-0.010 0.24s0.004 0.168 0.011 0.251l-0.001-0.011c0 2.946 2.388 5.333 5.333 5.333s5.333-2.388 5.333-5.333v0c-0.014-0.605-0.115-1.18-0.292-1.722l0.012 0.042zM26.667 3.56c0.005-0 0.011-0 0.018-0 0.361 0 0.697 0.11 0.975 0.297l-0.006-0.004c0.288 0.198 0.513 0.47 0.649 0.788l0.005 0.012c0.087 0.204 0.138 0.442 0.138 0.692 0 0.119-0.011 0.234-0.033 0.346l0.002-0.011c-0.070 0.359-0.246 0.67-0.493 0.906l-0.001 0.001c-0.237 0.248-0.547 0.423-0.896 0.492l-0.011 0.002c-0.101 0.020-0.217 0.031-0.335 0.031-0.25 0-0.487-0.051-0.703-0.143l0.012 0.004c-0.33-0.14-0.602-0.365-0.796-0.647l-0.004-0.006c-0.184-0.272-0.293-0.608-0.293-0.969 0-0.006 0-0.012 0-0.019v0.001c0-0.979 0.794-1.773 1.773-1.773v0zM3.56 8.893c-0-0.008-0-0.017-0-0.026 0-0.359 0.11-0.691 0.297-0.967l-0.004 0.006c0.202-0.289 0.472-0.516 0.788-0.662l0.012-0.005c0.198-0.082 0.428-0.129 0.669-0.129 0.126 0 0.25 0.013 0.369 0.038l-0.012-0.002c0.664 0.156 1.178 0.669 1.331 1.321l0.002 0.012c0.020 0.101 0.032 0.217 0.032 0.336 0 0.618-0.311 1.163-0.785 1.487l-0.006 0.004c-0.256 0.193-0.57 0.323-0.912 0.359l-0.008 0.001c-0.979 0-1.773-0.794-1.773-1.773v0zM16 16c-0.367-0.003-0.708-0.112-0.994-0.298l0.007 0.004c-0.48-0.328-0.792-0.873-0.792-1.491 0-0.119 0.011-0.235 0.033-0.347l-0.002 0.011c0.166-0.837 0.894-1.458 1.767-1.458 0.237 0 0.464 0.046 0.671 0.129l-0.012-0.004c0.328 0.15 0.598 0.378 0.796 0.66l0.004 0.006c0.184 0.27 0.294 0.602 0.294 0.961 0 0.009-0 0.018-0 0.027l0-0.001c0 0.008 0 0.017 0 0.027 0 0.979-0.794 1.773-1.773 1.773-0 0-0 0-0 0v0z"></path>
   <path fill="currentColor" d="M8.893 16h-5.333c-0.004-0-0.009-0-0.013-0-0.979 0-1.773 0.794-1.773 1.773 0 0 0 0 0 0v0 12.453c0 0 0 0 0 0 0 0.979 0.794 1.773 1.773 1.773 0.005 0 0.009-0 0.014-0h5.333c0.979 0 1.773-0.794 1.773-1.773v0-12.453c0-0.979-0.794-1.773-1.773-1.773v0zM7.107 28.44h-1.773v-8.88h1.773zM30.227 12.44h-5.333c-0.004-0-0.009-0-0.013-0-0.979 0-1.773 0.794-1.773 1.773 0 0.005 0 0.009 0 0.014v-0.001 16c0 0 0 0 0 0 0 0.979 0.794 1.773 1.773 1.773 0.005 0 0.009-0 0.014-0h5.333c0.979 0 1.773-0.794 1.773-1.773v0-5.333c0.004-0.046 0.007-0.1 0.007-0.154 0-0.987-0.8-1.787-1.787-1.787s-1.787 0.8-1.787 1.787c0 0.054 0.002 0.108 0.007 0.161l-0-0.007v3.547h-1.773v-12.44h1.773v3.56c0.082 0.918 0.848 1.632 1.78 1.632s1.698-0.714 1.779-1.626l0-0.007v-5.333c0-0.004 0-0.009 0-0.013 0-0.979-0.794-1.773-1.773-1.773-0 0-0 0-0 0v0zM19.56 21.333h-5.333c-0.004-0-0.009-0-0.013-0-0.979 0-1.773 0.794-1.773 1.773 0 0 0 0 0 0v0 7.12c0 0 0 0 0 0 0 0.979 0.794 1.773 1.773 1.773 0.005 0 0.009-0 0.014-0h5.333c0.979 0 1.773-0.794 1.773-1.773v0-7.12c0-0.979-0.794-1.773-1.773-1.773v0zM17.773 28.44h-1.773v-3.547h1.773z"></path>
  </symbol>
  <symbol id="icon-home" viewBox="0 0 33 32">
   <path fill="currentColor" d="M26.535 15.556c-0.906 0-1.641 0.735-1.641 1.641v11.522h-3.294v-8.228c0-0.906-0.735-1.641-1.641-1.641v0h-6.588c-0.906 0-1.641 0.735-1.641 1.641v0 8.228h-3.294v-11.522c0-0.906-0.735-1.641-1.641-1.641s-1.641 0.735-1.641 1.641v0 13.163c0 0.001 0 0.003 0 0.004 0 0.452 0.184 0.86 0.481 1.155l0 0c0.297 0.297 0.707 0.481 1.16 0.481h19.738c0.453-0 0.863-0.184 1.16-0.481v0c0.297-0.295 0.481-0.704 0.481-1.156 0-0.001 0-0.003 0-0.004v0-13.163c0-0.906-0.735-1.641-1.641-1.641v0zM18.307 28.719h-3.281v-6.588h3.281zM32.864 15.951c-0.152 0.174-0.337 0.315-0.545 0.415l-0.010 0.004c-0.2 0.085-0.434 0.135-0.678 0.136h-0c-0.003 0-0.006 0-0.009 0-0.414 0-0.792-0.154-1.079-0.409l0.002 0.002-13.878-12.336-13.878 12.274c-0.156 0.145-0.34 0.261-0.543 0.341l-0.012 0.004c-0.169 0.072-0.365 0.113-0.571 0.113-0.029 0-0.058-0.001-0.087-0.003l0.004 0c-0.235-0.010-0.454-0.068-0.651-0.165l0.010 0.004c-0.206-0.104-0.381-0.236-0.53-0.394l-0.001-0.001c-0.142-0.162-0.252-0.356-0.318-0.569l-0.003-0.011c-0.057-0.162-0.090-0.348-0.090-0.542 0-0.039 0.001-0.078 0.004-0.117l-0 0.005c0.024-0.234 0.094-0.448 0.202-0.637l-0.004 0.008c0.105-0.201 0.246-0.37 0.416-0.503l0.003-0.003 14.964-13.163c0.289-0.252 0.669-0.406 1.086-0.406s0.797 0.154 1.088 0.408l-0.002-0.002 14.964 13.163c0.174 0.14 0.315 0.312 0.415 0.509l0.004 0.009c0.096 0.187 0.158 0.405 0.172 0.637l0 0.005c0.002 0.028 0.003 0.061 0.003 0.094 0 0.441-0.17 0.842-0.448 1.141l0.001-0.001z"></path>
  </symbol>
  <symbol id="icon-image" viewBox="0 0 32 32">
   <path fill="currentColor" d="M25.33 0h-18.66c-0.003 0-0.006 0-0.010 0-3.678 0-6.66 2.982-6.66 6.66 0 0.004 0 0.007 0 0.011v-0.001 18.66c0 0.001 0 0.003 0 0.004 0 1.82 0.733 3.469 1.921 4.667l-0-0v0.050h0.050c1.201 1.205 2.861 1.95 4.696 1.95 0.001 0 0.003 0 0.004 0h18.66c0.003 0 0.006 0 0.010 0 3.678 0 6.66-2.982 6.66-6.66 0-0.004 0-0.007 0-0.011v0.001-18.66c0-0.003 0-0.006 0-0.010 0-3.678-2.982-6.66-6.66-6.66-0.004 0-0.007 0-0.011 0h0.001zM2.67 6.67c0-2.209 1.791-4 4-4v0h18.66c2.209 0 4 1.791 4 4v0 14.11l-5.72-5.72c-0.242-0.241-0.576-0.39-0.945-0.39s-0.703 0.149-0.945 0.39l-6.39 6.39-2.39-2.39c-0.241-0.24-0.573-0.389-0.94-0.389s-0.699 0.149-0.94 0.389v0l-8 8c-0.249-0.502-0.396-1.094-0.4-1.719v-0.001zM25.33 29.33h-18.66c-0.61-0.012-1.182-0.158-1.693-0.41l0.023 0.010 7.050-7 4.39 4.39c0.244 0.234 0.575 0.378 0.94 0.38h0c0.013 0 0.029 0.001 0.044 0.001 0.371 0 0.707-0.145 0.956-0.381l-0.001 0.001c0.241-0.242 0.39-0.576 0.39-0.945s-0.149-0.703-0.39-0.945l-1.060-1.060 5.45-5.44 6.66 6.66v0.78c0 2.209-1.791 4-4 4v0z"></path>
   <path fill="currentColor" d="M9.33 13.33c0.002 0 0.004 0 0.007 0 2.209 0 4-1.791 4-4 0-0.276-0.028-0.546-0.081-0.806l0.004 0.026c-0.17-0.807-0.559-1.505-1.1-2.050l0 0c-0.723-0.721-1.721-1.167-2.824-1.167-0.554 0-1.082 0.113-1.563 0.317l0.026-0.010c-0.746 0.312-1.358 0.818-1.791 1.456l-0.009 0.014c-0.421 0.624-0.673 1.393-0.673 2.22 0 2.207 1.787 3.996 3.992 4h0zM9.33 8c0.275 0.001 0.531 0.083 0.745 0.223l-0.005-0.003c0.216 0.151 0.387 0.354 0.496 0.591l0.004 0.009c0.061 0.149 0.097 0.321 0.097 0.502 0 0.095-0.010 0.187-0.028 0.277l0.002-0.009c-0.099 0.536-0.514 0.951-1.042 1.049l-0.008 0.001c-0.081 0.017-0.173 0.027-0.268 0.027-0.181 0-0.353-0.036-0.511-0.1l0.009 0.003c-0.246-0.113-0.449-0.284-0.597-0.495l-0.003-0.005c-0.137-0.209-0.219-0.465-0.22-0.74v-0c0-0.735 0.595-1.33 1.33-1.33v0z"></path>
  </symbol>
  <symbol id="icon-important" viewBox="0 0 32 32">
   <path fill="currentColor" d="M17.137 0l-17.137 17.137 2.238 2.227 16.201-16.201h10.398v10.398l-13.975 13.975-8.16-8.172-2.238 2.238 10.398 10.375 17.113-17.113v-14.863z"></path>
  </symbol>
  <symbol id="icon-inbox" viewBox="0 0 32 32">
   <path fill="currentColor" d="M0 0v19.56h9.253c0.788 3.058 3.501 5.289 6.742 5.333l0.005 0c3.246-0.045 5.959-2.275 6.736-5.284l0.011-0.049h5.693v8.88h-24.88v-5.333h-3.56v8.893h32v-32zM3.56 3.56h24.88v12.44h-8.88v1.773c0 1.966-1.594 3.56-3.56 3.56s-3.56-1.594-3.56-3.56v0-1.773h-8.88z"></path>
  </symbol>
  <symbol id="icon-info" viewBox="0 0 32 32">
   <path fill="currentColor" d="M14.398 20.793h3.204v3.204h-3.204zM14.398 8.003v9.599h3.204v-9.599zM15.994 0c-8.84 0-16.006 7.166-16.006 16.006s7.166 16.006 16.006 16.006c8.84 0 16.006-7.166 16.006-16.006 0-0.004 0-0.008 0-0.013v0.001c-0.020-8.829-7.176-15.98-16.005-15.994h-0.001zM15.994 3.204c0.004 0 0.008 0 0.012 0 7.071 0 12.802 5.732 12.802 12.802s-5.732 12.802-12.802 12.802c-7.071 0-12.802-5.732-12.802-12.802 0-0.004 0-0.008 0-0.013v0.001c0-0.004 0-0.008 0-0.012 0-7.057 5.721-12.778 12.778-12.778 0.004 0 0.008 0 0.013 0h-0.001z"></path>
  </symbol>
  <symbol id="icon-investments" viewBox="0 0 40 32">
   <path fill="currentColor" d="M38.031 17.688c-0.073-0.493-0.325-0.917-0.687-1.212l-0.003-0.003c-0.33-0.29-0.766-0.466-1.243-0.466-0.022 0-0.044 0-0.065 0.001l0.003-0h-8.011c0.002 0 0.005 0 0.008 0 0.307 0 0.598-0.066 0.861-0.185l-0.013 0.005c0.274-0.127 0.504-0.304 0.688-0.522l0.002-0.003c0.197-0.205 0.347-0.457 0.432-0.737l0.003-0.013c0.032-0.131 0.050-0.281 0.050-0.435s-0.018-0.304-0.053-0.448l0.003 0.013-2.010-12.002c-0.078-0.492-0.329-0.915-0.687-1.213l-0.003-0.003c-0.344-0.285-0.789-0.46-1.274-0.465h-12.003c-0.002 0-0.005-0-0.008-0-0.494 0-0.947 0.176-1.3 0.468l0.003-0.003c-0.373 0.296-0.634 0.72-0.718 1.203l-0.002 0.012-2.010 12.002c-0.032 0.128-0.051 0.276-0.051 0.428s0.018 0.299 0.053 0.44l-0.003-0.013c0.11 0.303 0.285 0.56 0.509 0.764l0.002 0.001c0.186 0.221 0.416 0.398 0.678 0.52l0.012 0.005c0.249 0.114 0.541 0.18 0.848 0.18 0.003 0 0.005 0 0.008 0h-8.027c-0.019-0.001-0.040-0.001-0.062-0.001-0.477 0-0.913 0.177-1.245 0.468l0.002-0.002c-0.365 0.298-0.617 0.722-0.689 1.205l-0.001 0.011-2.025 12.002c-0.029 0.129-0.045 0.276-0.045 0.428s0.016 0.299 0.047 0.441l-0.003-0.014c0.086 0.295 0.225 0.551 0.408 0.768l-0.003-0.003c0.193 0.208 0.421 0.379 0.677 0.504l0.014 0.006c0.237 0.114 0.516 0.181 0.81 0.181 0.016 0 0.032-0 0.048-0.001l-0.002 0h16.052c0.002 0 0.004 0 0.007 0 0.297 0 0.578-0.066 0.83-0.185l-0.012 0.005c0.271-0.127 0.5-0.299 0.688-0.508l0.002-0.002c0.186-0.212 0.326-0.469 0.402-0.752l0.003-0.013c0.032-0.128 0.050-0.276 0.050-0.428s-0.018-0.299-0.053-0.44l0.003 0.013-2.010-12.002c-0.078-0.489-0.322-0.91-0.673-1.213l-0.003-0.002c-0.35-0.289-0.803-0.465-1.297-0.465-0.003 0-0.006 0-0.009 0h8.072c-0.016-0-0.036-0.001-0.055-0.001-0.484 0-0.927 0.176-1.268 0.468l0.003-0.002c-0.359 0.302-0.609 0.724-0.689 1.204l-0.002 0.012-1.995 12.002c-0.029 0.129-0.045 0.276-0.045 0.428s0.016 0.299 0.047 0.441l-0.003-0.014c0.091 0.295 0.235 0.551 0.422 0.768l-0.002-0.003c0.187 0.215 0.418 0.387 0.678 0.505l0.012 0.005c0.233 0.114 0.507 0.181 0.796 0.181 0.015 0 0.031-0 0.046-0.001l-0.002 0h6.001c1.102 0 1.995-0.893 1.995-1.995s-0.893-1.995-1.995-1.995v0h-3.556l1.335-8.011h8.596l1.35 8.011h-1.65c-1.102 0-1.995 0.893-1.995 1.995s0.893 1.995 1.995 1.995v0h4.006c0.025 0.001 0.054 0.002 0.083 0.002 0.275 0 0.535-0.062 0.768-0.172l-0.011 0.005c0.279-0.127 0.514-0.304 0.703-0.523l0.002-0.003c0.18-0.215 0.319-0.47 0.401-0.75l0.004-0.015c0.029-0.129 0.045-0.276 0.045-0.428s-0.016-0.299-0.047-0.441l0.002 0.014zM4.381 28.009l1.35-8.011h8.596l1.335 8.011zM14.387 12.002l1.335-7.996h8.611l1.335 7.996z"></path>
  </symbol>
  <symbol id="icon-italic" viewBox="0 0 24 32">
   <path fill="currentColor" d="M24 4v-4h-12v4h2.96l-10.28 24h-4.68v4h12v-4h-2.96l10.28-24z"></path>
  </symbol>
  <symbol id="icon-left-align" viewBox="0 0 32 32">
   <path fill="currentColor" d="M2.56 4.48h13.44c0.168 0.051 0.36 0.080 0.56 0.080 1.105 0 2-0.895 2-2s-0.895-2-2-2c-0.2 0-0.392 0.029-0.574 0.084l0.014-0.004h-13.44c-0.839 0.25-1.44 1.015-1.44 1.92s0.601 1.67 1.426 1.916l0.014 0.004zM2.56 31.36h26.88c0.168 0.051 0.36 0.080 0.56 0.080 1.105 0 2-0.895 2-2s-0.895-2-2-2c-0.2 0-0.392 0.029-0.574 0.084l0.014-0.004h-26.88c-0.168-0.051-0.36-0.080-0.56-0.080-1.105 0-2 0.895-2 2s0.895 2 2 2c0.2 0 0.392-0.029 0.574-0.084l-0.014 0.004zM2.56 22.4h20.26c0.168 0.051 0.36 0.080 0.56 0.080 1.105 0 2-0.895 2-2s-0.895-2-2-2c-0.2 0-0.392 0.029-0.574 0.084l0.014-0.004h-20.26c-0.168-0.051-0.36-0.080-0.56-0.080-1.105 0-2 0.895-2 2s0.895 2 2 2c0.2 0 0.392-0.029 0.574-0.084l-0.014 0.004zM2.56 13.44h26.88c0.839-0.25 1.44-1.015 1.44-1.92s-0.601-1.67-1.426-1.916l-0.014-0.004h-26.88c-0.839 0.25-1.44 1.015-1.44 1.92s0.601 1.67 1.426 1.916l0.014 0.004z"></path>
  </symbol>
  <symbol id="icon-link" viewBox="0 0 28 32">
   <path fill="currentColor" d="M24.867 16.936l-10.064 10.080c-1.216 1.085-2.83 1.748-4.598 1.748-3.822 0-6.921-3.099-6.921-6.921 0-1.768 0.663-3.381 1.754-4.604l-0.006 0.007 13.028-13.028c0.747-0.716 1.763-1.157 2.882-1.157s2.135 0.441 2.884 1.158l-0.002-0.001c0.735 0.739 1.189 1.758 1.189 2.882s-0.454 2.144-1.19 2.883l0-0-11.237 11.188c-0.11 0.113-0.239 0.206-0.383 0.273l-0.008 0.003c-0.138 0.067-0.3 0.108-0.47 0.114l-0.002 0c-0.073 0.019-0.158 0.029-0.244 0.029s-0.171-0.011-0.251-0.031l0.007 0.002c-0.159-0.052-0.295-0.136-0.407-0.245l0 0c-0.113-0.11-0.206-0.239-0.273-0.383l-0.003-0.008c-0.072-0.135-0.114-0.296-0.114-0.466 0-0.002 0-0.004 0-0.007v0c-0.015-0.073-0.024-0.158-0.024-0.244s0.009-0.171 0.025-0.252l-0.001 0.008c0.082-0.166 0.192-0.307 0.324-0.422l0.002-0.001 8.354-8.338c0.3-0.294 0.487-0.703 0.489-1.156v-0c0-0.008 0-0.017 0-0.026 0-0.899-0.729-1.629-1.628-1.629-0.46 0-0.876 0.191-1.172 0.498l-0 0.001-8.354 8.338c-0.814 0.806-1.319 1.924-1.319 3.159v0c-0.001 0.028-0.001 0.062-0.001 0.095 0 1.237 0.505 2.355 1.32 3.161l0 0c0.822 0.784 1.939 1.267 3.167 1.267s2.345-0.483 3.169-1.269l-0.002 0.002 11.269-11.318c1.321-1.327 2.138-3.158 2.138-5.179 0-4.054-3.287-7.341-7.341-7.341-2.033 0-3.873 0.827-5.203 2.162l-13.028 13.028c-1.818 1.838-2.941 4.366-2.941 7.157 0 5.622 4.558 10.18 10.18 10.18 2.831 0 5.393-1.156 7.238-3.021l0.001-0.001 10.080-10.064c0.144-0.153 0.264-0.33 0.353-0.525l0.005-0.012c0.080-0.182 0.128-0.395 0.13-0.618v-0.001c-0.004-0.23-0.052-0.448-0.135-0.647l0.004 0.012c-0.089-0.203-0.21-0.376-0.358-0.521l-0-0c-0.142-0.154-0.316-0.276-0.512-0.355l-0.009-0.003c-0.188-0.078-0.405-0.126-0.633-0.13l-0.002-0c-0.224 0.003-0.436 0.050-0.629 0.134l0.011-0.004c-0.211 0.083-0.39 0.204-0.537 0.358l-0 0.001z"></path>
  </symbol>
  <symbol id="icon-list" viewBox="0 0 25 32">
   <path fill="currentColor" d="M23.107 32h-3.547c-0.046 0.004-0.1 0.007-0.154 0.007-0.987 0-1.787-0.8-1.787-1.787s0.8-1.787 1.787-1.787c0.054 0 0.108 0.002 0.161 0.007l-0.007-0h1.773v-24.88h-17.773v24.88h8.88c0.046-0.004 0.1-0.007 0.154-0.007 0.987 0 1.787 0.8 1.787 1.787s-0.8 1.787-1.787 1.787c-0.054 0-0.108-0.002-0.161-0.007l0.007 0.001h-10.667c-0.979 0-1.773-0.794-1.773-1.773v0-28.453c0-0.979 0.794-1.773 1.773-1.773v0h21.333c0.004-0 0.009-0 0.013-0 0.979 0 1.773 0.794 1.773 1.773 0 0 0 0 0 0v0 28.453c0 0 0 0 0 0 0 0.979-0.794 1.773-1.773 1.773-0.005 0-0.009-0-0.014-0h0.001z"></path>
   <path fill="currentColor" d="M17.773 10.667h-10.667c-0.979 0-1.773-0.794-1.773-1.773s0.794-1.773 1.773-1.773v0h10.667c0.979 0 1.773 0.794 1.773 1.773s-0.794 1.773-1.773 1.773v0zM17.773 17.787h-10.667c-0.918-0.082-1.632-0.848-1.632-1.78s0.714-1.698 1.626-1.78l0.007-0.001h10.667c0.046-0.004 0.1-0.007 0.154-0.007 0.987 0 1.787 0.8 1.787 1.787s-0.8 1.787-1.787 1.787c-0.054 0-0.108-0.002-0.161-0.007l0.007 0zM17.773 24.893h-10.667c-0.918-0.082-1.632-0.848-1.632-1.78s0.714-1.698 1.626-1.779l0.007-0h10.667c0.046-0.004 0.1-0.007 0.154-0.007 0.987 0 1.787 0.8 1.787 1.787s-0.8 1.787-1.787 1.787c-0.054 0-0.108-0.002-0.161-0.007l0.007 0z"></path>
  </symbol>
  <symbol id="icon-litecoin" viewBox="0 0 32 32">
   <path fill="currentColor" d="M30.046 27.424h-16.009c-1.182-0.002-2.154-0.897-2.279-2.047l-0.001-0.010 0.737-7.541 6.736-1.834c0.616-0.18 1.12-0.578 1.434-1.103l0.006-0.011c0.187-0.326 0.297-0.717 0.297-1.134 0-0.206-0.027-0.406-0.078-0.596l0.004 0.016c-0.163-0.62-0.559-1.127-1.086-1.434l-0.011-0.006c-0.346-0.198-0.76-0.314-1.201-0.314-0.213 0-0.419 0.027-0.616 0.078l0.017-0.004-5.005 1.371 1.046-10.284c0.010-0.080 0.016-0.173 0.016-0.268 0-0.55-0.193-1.055-0.516-1.451l0.003 0.004c-0.431-0.522-1.078-0.852-1.802-0.852-0.552 0-1.060 0.192-1.459 0.513l0.005-0.004c-0.457 0.381-0.763 0.93-0.822 1.551l-0.001 0.009-1.2 12.221-6.256 1.714c-0.629 0.079-1.168 0.409-1.521 0.885l-0.004 0.006c-0.303 0.379-0.486 0.866-0.486 1.395 0 0.113 0.008 0.223 0.024 0.332l-0.002-0.012c0.087 0.626 0.415 1.163 0.886 1.521l0.006 0.004c0.39 0.3 0.886 0.481 1.424 0.481 0.102 0 0.203-0.007 0.302-0.019l-0.012 0.001c0.093 0.016 0.2 0.026 0.309 0.026s0.216-0.009 0.32-0.027l-0.011 0.002 4.559-1.303-0.617 5.862c0 3.786 3.070 6.856 6.856 6.856v0h16.009c1.259 0 2.28-1.021 2.28-2.28s-1.021-2.28-2.28-2.28v0z"></path>
  </symbol>
  <symbol id="icon-mail" viewBox="0 0 41 32">
   <path fill="currentColor" d="M41.29 1.927c0.008-0.070 0.013-0.15 0.013-0.232s-0.005-0.163-0.014-0.242l0.001 0.010-0.206-0.43c-0.001-0.093-0.048-0.174-0.12-0.223l-0.001-0.001-0.103-0.12-0.379-0.292c-0.095-0.107-0.209-0.194-0.338-0.255l-0.006-0.003-0.379-0.138h-38.039l-0.43 0.155c-0.135 0.059-0.249 0.14-0.344 0.24l-0 0.001-0.379 0.292v0.12c0 0.103 0 0.155-0.103 0.224l-0.206 0.43c-0.008 0.070-0.013 0.15-0.013 0.232s0.005 0.163 0.014 0.242l-0.001-0.010-0.258 0.258v27.527c0 1.264 1.024 2.288 2.288 2.288v0h20.645c0.060 0.005 0.129 0.009 0.199 0.009 1.273 0 2.305-1.032 2.305-2.305s-1.032-2.305-2.305-2.305c-0.070 0-0.139 0.003-0.208 0.009l0.009-0.001h-18.34v-20.645l14.675 11.011c0.377 0.29 0.856 0.465 1.376 0.465s0.999-0.175 1.382-0.469l-0.005 0.004 14.675-11.011v20.645h-4.576c-0.060-0.005-0.129-0.009-0.199-0.009-1.273 0-2.305 1.032-2.305 2.305s1.032 2.305 2.305 2.305c0.070 0 0.139-0.003 0.208-0.009l-0.009 0.001h6.882c1.264 0 2.288-1.024 2.288-2.288v-27.785zM20.645 13.075l-11.475-8.602h22.951z"></path>
  </symbol>
  <symbol id="icon-mail2" viewBox="0 0 41 32">
   <path fill="currentColor" d="M41.29 1.927c0.008-0.070 0.013-0.15 0.013-0.232s-0.005-0.163-0.014-0.242l0.001 0.010-0.206-0.43c-0.001-0.093-0.048-0.174-0.12-0.223l-0.001-0.001-0.103-0.12-0.379-0.292c-0.095-0.107-0.209-0.194-0.338-0.255l-0.006-0.003-0.379-0.138h-38.039l-0.43 0.155c-0.135 0.059-0.249 0.14-0.344 0.24l-0 0.001-0.379 0.292v0.12c0 0.103 0 0.155-0.103 0.224l-0.206 0.43c-0.008 0.070-0.013 0.15-0.013 0.232s0.005 0.163 0.014 0.242l-0.001-0.010-0.258 0.258v27.527c0 1.264 1.024 2.288 2.288 2.288v0h20.645c0.060 0.005 0.129 0.009 0.199 0.009 1.273 0 2.305-1.032 2.305-2.305s-1.032-2.305-2.305-2.305c-0.070 0-0.139 0.003-0.208 0.009l0.009-0.001h-18.34v-20.645l14.675 11.011c0.377 0.29 0.856 0.465 1.376 0.465s0.999-0.175 1.382-0.469l-0.005 0.004 14.675-11.011v20.645h-4.576c-0.060-0.005-0.129-0.009-0.199-0.009-1.273 0-2.305 1.032-2.305 2.305s1.032 2.305 2.305 2.305c0.070 0 0.139-0.003 0.208-0.009l-0.009 0.001h6.882c1.264 0 2.288-1.024 2.288-2.288v-27.785zM20.645 13.075l-11.475-8.602h22.951z"></path>
  </symbol>
  <symbol id="icon-more" viewBox="0 0 134 32">
   <path fill="currentColor" d="M66.909 0c-0.003 0-0.006 0-0.009 0-2.212 0-4.318 0.451-6.231 1.267l0.104-0.039c-3.929 1.645-6.991 4.708-8.597 8.532l-0.039 0.104c-0.763 1.804-1.206 3.902-1.206 6.103 0 4.411 1.78 8.407 4.661 11.307l-0.001-0.001c1.451 1.447 3.17 2.627 5.075 3.459l0.107 0.041c1.732 0.664 3.735 1.048 5.828 1.048 0.108 0 0.216-0.001 0.324-0.003l-0.016 0c0.511 0.058 1.103 0.091 1.703 0.091 8.837 0 16-7.163 16-16s-7.163-16-16-16c-0.6 0-1.192 0.033-1.775 0.097l0.072-0.006zM16 0c-0.003 0-0.006 0-0.009 0-2.211 0-4.318 0.451-6.231 1.267l0.104-0.039c-3.929 1.645-6.991 4.708-8.597 8.532l-0.039 0.104c-0.788 1.831-1.246 3.962-1.246 6.2 0 4.363 1.742 8.32 4.567 11.212l-0.003-0.003c1.451 1.447 3.17 2.627 5.075 3.459l0.107 0.041c1.734 0.666 3.74 1.051 5.836 1.051 0.153 0 0.307-0.002 0.459-0.006l-0.023 0c0.511 0.058 1.103 0.091 1.703 0.091 8.837 0 16-7.163 16-16s-7.163-16-16-16c-0.6 0-1.192 0.033-1.775 0.097l0.072-0.006zM117.818 0c-0.003 0-0.006 0-0.009 0-2.212 0-4.318 0.451-6.231 1.267l0.104-0.039c-3.929 1.645-6.991 4.708-8.597 8.532l-0.039 0.104c-0.763 1.804-1.206 3.902-1.206 6.103 0 4.411 1.78 8.407 4.661 11.307l-0.001-0.001c1.451 1.447 3.17 2.627 5.075 3.459l0.107 0.041c1.732 0.664 3.735 1.048 5.828 1.048 0.108 0 0.216-0.001 0.324-0.003l-0.016 0c0.511 0.058 1.103 0.091 1.703 0.091 8.837 0 16-7.163 16-16s-7.163-16-16-16c-0.6 0-1.192 0.033-1.775 0.097l0.072-0.006z"></path>
  </symbol>
  <symbol id="icon-phone" viewBox="0 0 32 32">
   <path fill="currentColor" d="M31.952 23.637c-0.054-0.244-0.159-0.458-0.302-0.639l0.002 0.003c-0.148-0.177-0.327-0.322-0.53-0.427l-0.010-0.005-6.395-3.204c-0.207-0.104-0.452-0.165-0.71-0.165-0.092 0-0.183 0.008-0.271 0.023l0.009-0.001c-0.346 0.051-0.647 0.211-0.876 0.444l-2.688 2.688c-3.852-0.624-9.911-6.695-10.583-10.547l2.688-2.676c0.287-0.292 0.465-0.693 0.465-1.136 0-0.259-0.061-0.504-0.169-0.721l0.004 0.009-3.156-6.395c-0.107-0.217-0.257-0.398-0.44-0.537l-0.004-0.003c-0.278-0.232-0.64-0.373-1.034-0.373-0.101 0-0.2 0.009-0.295 0.027l0.010-0.002c-0.239 0.049-0.45 0.15-0.627 0.29l0.003-0.002-6.407 4.799c-0.198 0.147-0.356 0.337-0.464 0.555l-0.004 0.009c-0.106 0.21-0.168 0.457-0.168 0.719 0 0.009 0 0.018 0 0.027l-0-0.001c0 15.31 10.283 25.605 25.593 25.605 0.004 0 0.008 0 0.012 0 0.521 0 0.983-0.253 1.269-0.644l0.003-0.004 4.799-6.395c0.136-0.179 0.236-0.393 0.286-0.625l0.002-0.011c0.022-0.095 0.035-0.205 0.035-0.317 0-0.13-0.017-0.257-0.049-0.377l0.002 0.010zM24.753 28.784c-12.646-0.336-21.153-8.891-21.537-21.585l4.211-3.168 1.824 3.6-2.4 2.4c-0.143 0.145-0.26 0.316-0.344 0.505l-0.004 0.011c-0.072 0.181-0.116 0.391-0.12 0.61l-0 0.002c0 5.651 8.747 14.398 14.398 14.398 0.019 0.001 0.042 0.001 0.065 0.001 0.443 0 0.844-0.179 1.135-0.469l2.4-2.4 3.6 1.824z"></path>
  </symbol>
  <symbol id="icon-plus" viewBox="0 0 32 32">
   <path fill="currentColor" d="M29.242 13.292h-10.174v-10.553c0-1.512-1.226-2.738-2.738-2.738s-2.738 1.226-2.738 2.738v0 10.553h-10.873c-1.512 0-2.738 1.226-2.738 2.738s1.226 2.738 2.738 2.738v0h10.893v10.493c-0.006 0.070-0.010 0.151-0.010 0.234 0 1.512 1.226 2.738 2.738 2.738s2.738-1.226 2.738-2.738c0-0.082-0.004-0.164-0.011-0.244l0.001 0.010v-10.493h10.194c1.504-0.011 2.719-1.233 2.719-2.738 0-0.014-0-0.028-0-0.042l0 0.002c-0.033-1.491-1.244-2.688-2.737-2.698h-0.001z"></path>
  </symbol>
  <symbol id="icon-promotion" viewBox="0 0 32 32">
   <path fill="currentColor" d="M32 12.44c-0.009-3.285-2.249-6.044-5.284-6.842l-0.049-0.011v-3.813c0-0.001 0-0.001 0-0.002 0-0.297-0.074-0.576-0.205-0.821l0.005 0.009c-0.135-0.26-0.324-0.475-0.554-0.636l-0.006-0.004c-0.223-0.158-0.488-0.27-0.776-0.318l-0.011-0.002c-0.068-0.009-0.147-0.014-0.227-0.014-0.22 0-0.431 0.039-0.626 0.112l0.012-0.004-15.52 5.653-6.88-0.413c-0.036-0.003-0.078-0.004-0.121-0.004-0.21 0-0.411 0.036-0.599 0.101l0.013-0.004c-0.243 0.092-0.451 0.223-0.628 0.388l0.001-0.001c-0.168 0.163-0.303 0.358-0.396 0.575l-0.004 0.011c-0.093 0.199-0.147 0.433-0.147 0.678 0 0.010 0 0.020 0 0.030l-0-0.002v12.453c0.001 0.261 0.060 0.509 0.164 0.73l-0.004-0.010c0.108 0.24 0.257 0.444 0.439 0.612l0.001 0.001c0.184 0.155 0.402 0.277 0.639 0.356l0.014 0.004c0.162 0.048 0.348 0.076 0.541 0.076 0.068 0 0.135-0.003 0.201-0.010l-0.008 0.001 2.333-0.293 1.667 9.493c0.077 0.433 0.304 0.804 0.623 1.064l0.003 0.003c0.311 0.257 0.713 0.413 1.152 0.413 0.003 0 0.005 0 0.008-0h6.453c0.271-0.001 0.527-0.059 0.758-0.165l-0.012 0.005c0.242-0.109 0.447-0.262 0.612-0.451l0.002-0.002c0.273-0.305 0.439-0.71 0.439-1.153 0-0.106-0.009-0.21-0.028-0.31l0.002 0.011-1.333-7.813 9.733 2.773h0.48c0.49-0 0.933-0.199 1.253-0.52v0c0.322-0.327 0.521-0.776 0.521-1.272 0-0.022-0-0.043-0.001-0.064l0 0.003v-3.733c1.565-0.419 2.883-1.308 3.828-2.505l0.012-0.015c0.933-1.186 1.499-2.7 1.507-4.345v-0.002zM3.56 9l3.547 0.187v7.92l-3.547 0.44zM12.12 28.44h-2.88l-1.333-7.853 0.907-0.107 2.133 0.587zM23.107 20.76l-9.68-2.667c-0.276-0.191-0.618-0.305-0.986-0.307h-0l-1.773-0.453v-8.44l12.44-4.52zM26.667 15.427v-6.093c0.561 0.32 1.013 0.773 1.324 1.316l0.009 0.017c0.294 0.505 0.468 1.112 0.468 1.76s-0.174 1.255-0.477 1.777l0.009-0.017c-0.325 0.557-0.776 1.008-1.316 1.324l-0.017 0.009z"></path>
  </symbol>
  <symbol id="icon-right-align" viewBox="0 0 32 32">
   <path fill="currentColor" d="M16 4h14c0.874-0.261 1.5-1.057 1.5-2s-0.626-1.739-1.485-1.996l-0.015-0.004h-14c-0.175-0.053-0.375-0.083-0.583-0.083-1.151 0-2.083 0.933-2.083 2.083s0.933 2.083 2.083 2.083c0.208 0 0.409-0.030 0.598-0.087l-0.015 0.004zM30 28h-27.917c-0.175-0.053-0.375-0.083-0.583-0.083-1.151 0-2.083 0.933-2.083 2.083s0.933 2.083 2.083 2.083c0.208 0 0.409-0.030 0.598-0.087l-0.015 0.004h27.917c0.175 0.053 0.375 0.083 0.583 0.083 1.151 0 2.083-0.933 2.083-2.083s-0.933-2.083-2.083-2.083c-0.208 0-0.409 0.030-0.598 0.087l0.015-0.004zM30 18.75h-21.104c-0.874 0.261-1.5 1.057-1.5 2s0.626 1.739 1.485 1.996l0.015 0.004h21.104c0.874-0.261 1.5-1.057 1.5-2s-0.626-1.739-1.485-1.996l-0.015-0.004zM30 9.417h-27.917c-0.807 0.299-1.373 1.063-1.373 1.958s0.565 1.659 1.358 1.954l0.014 0.005h27.917c0.874-0.261 1.5-1.057 1.5-2s-0.626-1.739-1.485-1.996l-0.015-0.004z"></path>
  </symbol>
  <symbol id="icon-ripplecoin" viewBox="0 0 30 32">
   <path fill="currentColor" d="M23.599 18.533c-0.769 0.027-1.495 0.178-2.169 0.432l0.047-0.016-2.426-2.893 2.426-2.956c0.63 0.227 1.358 0.365 2.116 0.379l0.007 0c0.012 0 0.026 0 0.041 0 3.726 0 6.746-3.020 6.746-6.746s-3.020-6.746-6.746-6.746c-3.726 0-6.746 3.020-6.746 6.746 0 1.743 0.661 3.331 1.746 4.528l-0.005-0.006-2.527 3.057h-2.842c-0.437-1.623-1.412-2.972-2.719-3.876l-0.023-0.015c-1.044-0.696-2.328-1.111-3.709-1.111-3.726 0-6.746 3.020-6.746 6.746 0 3.399 2.513 6.21 5.782 6.678l0.036 0.004c0.251 0.033 0.54 0.052 0.834 0.052 3.143 0 5.784-2.149 6.533-5.058l0.010-0.047h2.805l2.527 3.070c-1.080 1.186-1.741 2.77-1.741 4.509 0 1.493 0.488 2.872 1.312 3.986l-0.013-0.018c1.244 1.686 3.223 2.768 5.455 2.768 0.994 0 1.937-0.214 2.787-0.599l-0.043 0.017c2.375-1.075 3.998-3.424 3.998-6.153 0-3.719-3.015-6.734-6.734-6.734-0.020 0-0.039 0-0.059 0l0.003-0zM6.759 19.367c-0.006 0-0.012 0-0.019 0-0.691 0-1.332-0.213-1.862-0.576l0.011 0.007c-0.906-0.609-1.494-1.629-1.494-2.787 0-0.234 0.024-0.463 0.070-0.683l-0.004 0.022c0.131-0.684 0.459-1.275 0.922-1.73l0-0c0.454-0.459 1.040-0.785 1.697-0.919l0.021-0.004c0.198-0.042 0.426-0.065 0.659-0.065 1.165 0 2.192 0.593 2.794 1.493l0.008 0.012c0.356 0.525 0.568 1.173 0.568 1.87 0 1.856-1.505 3.36-3.36 3.36-0.004 0-0.009 0-0.013-0h0.001zM23.599 3.373c0.006-0 0.013-0 0.020-0 0.695 0 1.34 0.212 1.874 0.576l-0.012-0.007c0.906 0.609 1.494 1.629 1.494 2.787 0 0.234-0.024 0.463-0.070 0.683l0.004-0.022c-0.246 1.369-1.294 2.438-2.631 2.712l-0.022 0.004c-0.197 0.040-0.423 0.063-0.655 0.063-0.465 0-0.909-0.093-1.314-0.261l0.023 0.008c-0.625-0.271-1.137-0.706-1.495-1.251l-0.008-0.013c-0.372-0.522-0.594-1.173-0.594-1.876 0-0.016 0-0.031 0-0.047l-0 0.002c0-1.856 1.505-3.36 3.36-3.36v0zM23.599 28.64c-0.697-0.004-1.343-0.216-1.882-0.576l0.012 0.008c-0.559-0.369-0.994-0.886-1.255-1.494l-0.008-0.022c-0.161-0.38-0.254-0.823-0.254-1.287 0-0.933 0.377-1.777 0.987-2.389l-0 0c0.458-0.452 1.043-0.777 1.695-0.918l0.023-0.004c0.191-0.038 0.411-0.060 0.636-0.060 1.171 0 2.204 0.59 2.818 1.488l0.008 0.012c0.354 0.526 0.566 1.173 0.566 1.87 0 1.862-1.509 3.371-3.37 3.373h-0z"></path>
  </symbol>
  <symbol id="icon-search" viewBox="0 0 32 32">
   <path fill="currentColor" d="M30.436 23.711l-3.32-3.392c-0.689-0.661-1.573-1.124-2.557-1.295l-0.029-0.004c-0.24-0.041-0.516-0.065-0.798-0.065-0.749 0-1.459 0.166-2.096 0.462l0.031-0.013-1.444-1.444c1.395-1.848 2.234-4.184 2.234-6.716 0-6.192-5.020-11.212-11.212-11.212s-11.212 5.020-11.212 11.212c0 6.192 5.020 11.212 11.212 11.212 2.532 0 4.868-0.839 6.745-2.255l-0.028 0.021 1.42 1.432c-0.329 0.64-0.522 1.395-0.522 2.196 0 0.252 0.019 0.5 0.056 0.742l-0.003-0.027c0.162 1.040 0.637 1.948 1.324 2.647l-0.001-0.001 3.404 3.392c0.87 0.868 2.072 1.405 3.398 1.405s2.528-0.537 3.399-1.405l-0 0c0.446-0.439 0.807-0.962 1.058-1.544l0.012-0.032c0.238-0.55 0.376-1.191 0.376-1.865s-0.138-1.314-0.388-1.896l0.012 0.031c-0.262-0.618-0.624-1.146-1.070-1.588l-0-0zM16.842 16.914c-1.089 1.084-2.487 1.859-4.050 2.181l-0.052 0.009c-0.466 0.095-1.002 0.149-1.55 0.149-1.111 0-2.17-0.223-3.135-0.626l0.054 0.020c-2.941-1.234-4.969-4.090-4.969-7.42 0-4.432 3.592-8.024 8.024-8.024 2.218 0 4.226 0.9 5.679 2.355l0 0c1.455 1.452 2.355 3.46 2.355 5.678s-0.9 4.226-2.354 5.678l-0 0zM28.186 28.259c-0.146 0.143-0.317 0.261-0.506 0.345l-0.011 0.004c-0.181 0.076-0.391 0.12-0.611 0.12-0.005 0-0.010-0-0.015-0h0.001c-0.004 0-0.009 0-0.014 0-0.216 0-0.422-0.044-0.609-0.124l0.010 0.004c-0.2-0.088-0.372-0.206-0.518-0.349l0 0-3.417-3.404c-0.151-0.14-0.27-0.313-0.346-0.508l-0.003-0.009c-0.081-0.184-0.13-0.399-0.132-0.625v-0.001c0.002-0.223 0.051-0.433 0.136-0.623l-0.004 0.010c0.079-0.204 0.197-0.377 0.348-0.516l0.001-0.001c0.143-0.151 0.315-0.273 0.507-0.357l0.010-0.004c0.185-0.072 0.4-0.116 0.624-0.12l0.002-0c0.222 0.004 0.432 0.048 0.626 0.125l-0.012-0.004c0.202 0.088 0.375 0.21 0.517 0.36l0.001 0.001 3.404 3.392c0.143 0.149 0.261 0.325 0.345 0.518l0.004 0.011c0.073 0.178 0.116 0.385 0.116 0.602s-0.042 0.423-0.119 0.612l0.004-0.011c-0.089 0.213-0.207 0.396-0.35 0.555l0.002-0.002z"></path>
  </symbol>
  <symbol id="icon-send" viewBox="0 0 40 32">
   <path fill="currentColor" d="M4.006 4.921v4.861c-0.092 1.033-0.954 1.837-2.003 1.837s-1.911-0.804-2.002-1.829l-0.001-0.008v-7.786c0-0.002 0-0.003 0-0.005 0-1.102 0.893-1.995 1.995-1.995 0.265 0 0.517 0.052 0.749 0.145l-0.013-0.005 36.006 13.997c0.752 0.306 1.273 1.029 1.275 1.875v0c-0 0.843-0.523 1.563-1.262 1.856l-0.014 0.005-36.006 13.997c-0.218 0.089-0.47 0.14-0.735 0.14-1.102 0-1.995-0.893-1.995-1.995 0-0.002 0-0.004 0-0.006v0-10.007c0-3.314 2.687-6.001 6.001-6.001v0h10.007c1.033 0.092 1.837 0.954 1.837 2.003s-0.804 1.911-1.829 2.002l-0.008 0.001h-10.007c-1.102 0-1.995 0.893-1.995 1.995v7.081l28.504-11.072z"></path>
  </symbol>
  <symbol id="icon-send2" viewBox="0 0 40 32">
   <path fill="currentColor" d="M4.006 4.921v4.861c-0.092 1.033-0.954 1.837-2.003 1.837s-1.911-0.804-2.002-1.829l-0.001-0.008v-7.786c0-0.002 0-0.003 0-0.005 0-1.102 0.893-1.995 1.995-1.995 0.265 0 0.517 0.052 0.749 0.145l-0.013-0.005 36.006 13.997c0.752 0.306 1.273 1.029 1.275 1.875v0c-0 0.843-0.523 1.563-1.262 1.856l-0.014 0.005-36.006 13.997c-0.218 0.089-0.47 0.14-0.735 0.14-1.102 0-1.995-0.893-1.995-1.995 0-0.002 0-0.004 0-0.006v0-10.007c0-3.314 2.687-6.001 6.001-6.001v0h10.007c1.033 0.092 1.837 0.954 1.837 2.003s-0.804 1.911-1.829 2.002l-0.008 0.001h-10.007c-1.102 0-1.995 0.893-1.995 1.995v7.081l28.504-11.072z"></path>
  </symbol>
  <symbol id="icon-star" viewBox="0 0 33 32">
   <path fill="currentColor" d="M15.032 1.236c0.242-0.722 0.913-1.232 1.702-1.232s1.46 0.511 1.698 1.22l0.004 0.013 2.723 8.367c0.235 0.731 0.907 1.251 1.702 1.254h8.798c0.982 0.010 1.774 0.808 1.774 1.792 0 0.584-0.28 1.103-0.712 1.43l-0.005 0.003-7.167 5.178c-0.448 0.33-0.735 0.855-0.735 1.447 0 0.2 0.033 0.393 0.093 0.573l-0.004-0.013 2.723 8.385c0.052 0.16 0.082 0.345 0.082 0.537 0 0.99-0.802 1.792-1.792 1.792-0.394 0-0.759-0.127-1.055-0.343l0.005 0.004-7.167-5.178c-0.291-0.212-0.654-0.339-1.048-0.339s-0.758 0.127-1.053 0.342l0.005-0.004-7.167 5.178c-0.291 0.212-0.655 0.34-1.050 0.34-0.99 0-1.792-0.802-1.792-1.792 0-0.192 0.030-0.376 0.086-0.55l-0.004 0.013 2.723-8.385c0.057-0.167 0.090-0.36 0.090-0.56 0-0.592-0.287-1.117-0.73-1.443l-0.005-0.003-7.167-5.178c-0.441-0.33-0.723-0.851-0.723-1.438 0-0.99 0.802-1.792 1.792-1.792 0.046 0 0.092 0.002 0.138 0.005l-0.006-0h8.815c0.024 0.001 0.053 0.002 0.082 0.002 0.798 0 1.475-0.522 1.706-1.243l0.004-0.013z"></path>
  </symbol>
  <symbol id="icon-star2" viewBox="0 0 34 32">
   <path fill="currentColor" d="M27.223 32l-9.753-7.077c-0.179-0.131-0.404-0.209-0.647-0.209s-0.468 0.078-0.65 0.211l0.003-0.002-9.753 7.077 3.726-11.455c0.035-0.103 0.055-0.222 0.055-0.346 0-0.365-0.177-0.689-0.45-0.891l-0.003-0.002-9.753-7.077h12.053c0.49-0.002 0.905-0.323 1.048-0.766l0.002-0.008 3.726-11.455 3.715 11.455c0.145 0.453 0.563 0.775 1.055 0.775 0.018 0 0.035-0 0.053-0.001l-0.003 0h11.997l-9.742 7.077c-0.281 0.203-0.462 0.53-0.462 0.899 0 0.121 0.020 0.238 0.055 0.347l-0.002-0.008zM16.829 22.502c0 0 0 0 0.001 0 0.731 0 1.407 0.236 1.955 0.637l-0.009-0.007 4.246 3.085-1.625-4.987c-0.104-0.308-0.164-0.662-0.164-1.030 0-1.1 0.535-2.075 1.36-2.679l0.009-0.007 4.246-3.074h-5.241c-0.004 0-0.008 0-0.012 0-1.46 0-2.7-0.944-3.143-2.254l-0.007-0.023-1.614-5.009-1.625 5.009c-0.443 1.344-1.685 2.297-3.151 2.3h-5.241l4.246 3.052c0.834 0.61 1.369 1.585 1.369 2.685 0 0.368-0.060 0.723-0.171 1.054l0.007-0.023-1.625 4.987 4.235-3.085c0.539-0.394 1.214-0.63 1.945-0.63 0.004 0 0.008 0 0.012 0h-0.001z"></path>
  </symbol>
  <symbol id="icon-task" viewBox="0 0 32 32">
   <path fill="currentColor" d="M30.227 0h-28.453c-0.979 0-1.773 0.794-1.773 1.773v0 28.453c0 0.979 0.794 1.773 1.773 1.773v0h16c0.046 0.004 0.1 0.007 0.154 0.007 0.987 0 1.787-0.8 1.787-1.787s-0.8-1.787-1.787-1.787c-0.054 0-0.108 0.002-0.161 0.007l0.007-0h-14.213v-10.667h24.88v10.667h-3.547c-0.046-0.004-0.1-0.007-0.154-0.007-0.987 0-1.787 0.8-1.787 1.787s0.8 1.787 1.787 1.787c0.054 0 0.108-0.002 0.161-0.007l-0.007 0.001h5.333c0.979 0 1.773-0.794 1.773-1.773v0-28.453c0-0.979-0.794-1.773-1.773-1.773v0zM3.56 14.227v-10.667h24.88v10.667z"></path>
   <path fill="currentColor" d="M23.107 21.333c0-0.979-0.794-1.773-1.773-1.773s-1.773 0.794-1.773 1.773v0h-7.12c0-0.979-0.794-1.773-1.773-1.773s-1.773 0.794-1.773 1.773v0 1.773c-0 0.004-0 0.009-0 0.013 0 0.979 0.794 1.773 1.773 1.773 0 0 0 0 0 0h10.667c0 0 0 0 0 0 0.979 0 1.773-0.794 1.773-1.773 0-0.005-0-0.009-0-0.014v0.001zM21.333 5.333c-0.979 0-1.773 0.794-1.773 1.773v0h-7.12c0-0.979-0.794-1.773-1.773-1.773s-1.773 0.794-1.773 1.773v0 1.787c0 0.979 0.794 1.773 1.773 1.773v0h10.667c0.979 0 1.773-0.794 1.773-1.773v0-1.787c0-0.979-0.794-1.773-1.773-1.773v0z"></path>
  </symbol>
  <symbol id="icon-team-contact" viewBox="0 0 32 32">
   <path fill="currentColor" d="M26.327 20.215c1.248-0.984 2.043-2.496 2.043-4.194 0-0.615-0.104-1.206-0.296-1.756l0.011 0.037c-0.356-1.098-1.031-2.011-1.916-2.653l-0.015-0.010c-0.829-0.632-1.88-1.013-3.020-1.013-0.563 0-1.105 0.093-1.61 0.264l0.035-0.010c-0.666-0.56-1.43-1.033-2.258-1.389l-0.059-0.023c1.265-0.984 2.071-2.506 2.071-4.216 0-2.942-2.385-5.327-5.327-5.327s-5.327 2.385-5.327 5.327c0 1.71 0.806 3.232 2.059 4.207l0.012 0.009c-0.893 0.337-1.664 0.787-2.345 1.343l0.015-0.012c-0.371-0.090-0.797-0.142-1.234-0.142-0.417 0-0.823 0.047-1.212 0.136l0.036-0.007c-2.495 0.475-4.356 2.639-4.356 5.237 0 1.696 0.793 3.207 2.027 4.182l0.011 0.009c-3.336 1.311-5.658 4.497-5.673 8.228v1.786c0.022 0.961 0.807 1.731 1.771 1.731 0 0 0 0 0 0h19.536c0.978 0 1.771-0.793 1.771-1.771v0c-0.001-0.493-0.199-0.939-0.52-1.265l0 0c-0.32-0.321-0.763-0.519-1.252-0.519h-3.556c0.003-1.467 0.597-2.794 1.558-3.755l-0 0c0.964-0.965 2.297-1.562 3.769-1.562s2.804 0.597 3.769 1.562l0 0c0.961 0.962 1.555 2.289 1.558 3.755v0c-0.489 0-0.931 0.199-1.252 0.519v0c-0.32 0.326-0.518 0.772-0.519 1.265v0c0 0.978 0.793 1.771 1.771 1.771v0h1.784c0 0 0 0 0 0 0.964 0 1.748-0.77 1.771-1.729l0-0.002v-1.784c-0.008-3.724-2.313-6.907-5.573-8.209l-0.060-0.021zM24.862 15.98c-0.001 0.368-0.116 0.71-0.31 0.991l0.004-0.006c-0.192 0.294-0.465 0.52-0.788 0.649l-0.011 0.004c-0.204 0.087-0.441 0.138-0.691 0.138-0.118 0-0.234-0.011-0.346-0.033l0.011 0.002c-0.358-0.074-0.667-0.248-0.905-0.492l-0-0c-0.319-0.324-0.516-0.769-0.516-1.26 0-0.242 0.048-0.472 0.134-0.682l-0.004 0.012c0.14-0.33 0.365-0.601 0.646-0.795l0.006-0.004c0.279-0.181 0.619-0.29 0.985-0.293h0.001c0.004-0 0.009-0 0.013-0 0.978 0 1.771 0.793 1.771 1.771 0 0 0 0 0 0v0zM15.98 3.595c0.366 0.003 0.707 0.112 0.993 0.297l-0.007-0.004c0.288 0.198 0.512 0.469 0.648 0.787l0.005 0.012c0.087 0.204 0.138 0.441 0.138 0.691 0 0.118-0.011 0.234-0.033 0.346l0.002-0.011c-0.070 0.359-0.245 0.669-0.492 0.905l-0.001 0.001c-0.237 0.247-0.547 0.423-0.895 0.491l-0.011 0.002c-0.101 0.020-0.216 0.031-0.335 0.031-0.249 0-0.487-0.051-0.702-0.142l0.012 0.004c-0.33-0.14-0.601-0.365-0.795-0.646l-0.004-0.006c-0.184-0.272-0.294-0.608-0.294-0.969 0-0.020 0-0.040 0.001-0.059l-0 0.003c0.022-0.961 0.807-1.731 1.771-1.731 0 0 0 0 0 0h-0zM8.882 14.249c0.366 0.003 0.707 0.112 0.993 0.297l-0.007-0.004c0.288 0.198 0.512 0.469 0.648 0.787l0.005 0.012c0.089 0.206 0.141 0.446 0.141 0.699 0 0.497-0.202 0.947-0.527 1.272l-0 0c-0.238 0.244-0.548 0.419-0.894 0.491l-0.011 0.002c-0.101 0.020-0.216 0.031-0.335 0.031-0.249 0-0.487-0.051-0.702-0.142l0.012 0.004c-0.334-0.133-0.607-0.359-0.795-0.646l-0.004-0.006c-0.191-0.277-0.306-0.62-0.306-0.99 0-0.487 0.198-0.928 0.519-1.247l0-0c0.319-0.337 0.766-0.55 1.263-0.559l0.002-0zM8.882 23.118c1.473 0.003 2.806 0.603 3.768 1.571l0 0c0.961 0.962 1.555 2.289 1.558 3.755v0h-10.653c0-2.942 2.385-5.327 5.327-5.327v0zM15.98 23.118c-0.982-1.304-2.283-2.319-3.789-2.935l-0.060-0.022c1.023-0.79 1.745-1.926 1.992-3.229l0.005-0.033c0.044-0.254 0.069-0.547 0.069-0.845 0-1.085-0.329-2.092-0.893-2.929l0.012 0.019c0.756-0.41 1.655-0.652 2.61-0.652s1.854 0.241 2.639 0.666l-0.029-0.015c-0.526 0.804-0.839 1.788-0.839 2.845 0 0.322 0.029 0.636 0.084 0.942l-0.005-0.032c0.252 1.337 0.975 2.473 1.985 3.253l0.012 0.009c-1.545 0.646-2.827 1.659-3.778 2.933l-0.017 0.024z"></path>
  </symbol>
  <symbol id="icon-time" viewBox="0 0 32 32">
   <path fill="currentColor" d="M16 32c-8.837 0-16-7.163-16-16s7.163-16 16-16v0c0.073-0.003 0.157-0.005 0.243-0.005 0.434 0 0.856 0.051 1.261 0.146l-0.037-0.007c0.836 0.090 1.482 0.792 1.482 1.644 0 0.078-0.005 0.155-0.016 0.231l0.001-0.009c-0.090 0.836-0.792 1.482-1.644 1.482-0.078 0-0.155-0.005-0.231-0.016l0.009 0.001h-1.2c-6.996 0-12.667 5.671-12.667 12.667s5.671 12.667 12.667 12.667v0c6.977-0.045 12.622-5.689 12.667-12.662l0-0.004c0.003-0.073 0.005-0.157 0.005-0.243 0-0.434-0.051-0.856-0.146-1.261l0.007 0.037c-0.003-0.040-0.005-0.086-0.005-0.133 0-0.928 0.752-1.68 1.68-1.68 0.833 0 1.525 0.607 1.657 1.403l0.001 0.010c0 0.533 0.133 1.2 0.133 1.867 0 0.016 0 0.035 0 0.053 0 8.733-7.080 15.813-15.813 15.813-0.019 0-0.038-0-0.056-0h0.003z"></path>
   <path fill="currentColor" d="M19.733 21.333c-0.475-0.001-0.902-0.206-1.199-0.532l-0.001-0.001-3.733-3.733c-0.298-0.316-0.494-0.732-0.533-1.193l-0.001-0.007v-8.933c0-0.957 0.776-1.733 1.733-1.733s1.733 0.776 1.733 1.733v0 8.4l3.2 3.2c0.308 0.307 0.499 0.731 0.499 1.2s-0.191 0.893-0.499 1.2l-0 0c-0.334 0.241-0.749 0.389-1.197 0.4l-0.003 0zM22.133 4.8c-0.951-0.015-1.719-0.782-1.733-1.732l-0-0.001c0-0.957 0.776-1.733 1.733-1.733s1.733 0.776 1.733 1.733v0c-0.015 0.951-0.782 1.719-1.732 1.733l-0.001 0zM26 7.333c-0.951-0.015-1.719-0.782-1.733-1.732l-0-0.001c0.004-0.91 0.703-1.655 1.593-1.733l0.007-0c0.951 0.015 1.719 0.782 1.733 1.732l0 0.001c0.011 0.069 0.018 0.149 0.018 0.231 0 0.832-0.675 1.507-1.507 1.507-0.039 0-0.078-0.002-0.116-0.004l0.005 0zM28.933 11.467c-0.951-0.015-1.719-0.782-1.733-1.732l-0-0.001c0.004-0.91 0.703-1.655 1.593-1.733l0.007-0c0.951 0.015 1.719 0.782 1.733 1.732l0 0.001c0.001 0.024 0.002 0.052 0.002 0.081 0 0.895-0.711 1.624-1.599 1.652l-0.003 0z"></path>
  </symbol>
  <symbol id="icon-transaction2" viewBox="0 0 32 32">
   <path fill="currentColor" d="M26.667 0h-21.333c-2.946 0-5.333 2.388-5.333 5.333v0 21.333c0 2.946 2.388 5.333 5.333 5.333v0h21.333c2.946 0 5.333-2.388 5.333-5.333v0-21.333c0-2.946-2.388-5.333-5.333-5.333v0zM18.733 20h-7.427l1.547 1.56c0.24 0.241 0.388 0.573 0.388 0.94s-0.148 0.699-0.388 0.94l0-0c-0.122 0.123-0.269 0.222-0.431 0.29l-0.009 0.003c-0.145 0.059-0.314 0.093-0.49 0.093-0.006 0-0.011-0-0.017-0h0.001c-0.364-0.002-0.694-0.149-0.933-0.387l0 0-3.827-3.84c-0.243-0.242-0.394-0.576-0.394-0.946 0-0.183 0.037-0.357 0.104-0.516l-0.003 0.009c0.105-0.249 0.275-0.453 0.489-0.597l0.005-0.003c0.204-0.134 0.455-0.213 0.724-0.213 0.003 0 0.007 0 0.010 0h10.666c0.736 0 1.333 0.597 1.333 1.333s-0.597 1.333-1.333 1.333v0zM25.213 13.893c-0.111 0.233-0.28 0.423-0.488 0.557l-0.005 0.003c-0.203 0.133-0.452 0.213-0.72 0.213h-10.667c-0.736 0-1.333-0.597-1.333-1.333s0.597-1.333 1.333-1.333v0h7.427l-1.547-1.547c-0.199-0.232-0.321-0.535-0.321-0.867 0-0.736 0.597-1.333 1.333-1.333 0.332 0 0.636 0.121 0.869 0.322l-0.002-0.001 3.827 3.813c0.193 0.185 0.33 0.427 0.385 0.698l0.001 0.009c0.012 0.069 0.018 0.148 0.018 0.229 0 0.201-0.041 0.393-0.115 0.568l0.004-0.010z"></path>
  </symbol>
  <symbol id="icon-trash" viewBox="0 0 32 32">
   <path fill="currentColor" d="M30.392 4.799h-28.796c-0.826 0.074-1.469 0.763-1.469 1.602s0.643 1.528 1.463 1.601l0.006 0h3.204v19.198c0 0.004 0 0.008 0 0.012 0 0.658 0.132 1.285 0.372 1.855l-0.012-0.032c0.266 0.603 0.617 1.12 1.045 1.561l-0.001-0.001c0.434 0.433 0.953 0.782 1.529 1.020l0.031 0.011c0.542 0.233 1.173 0.37 1.835 0.372h12.803c0.663-0.004 1.294-0.141 1.868-0.384l-0.032 0.012c1.184-0.486 2.106-1.408 2.58-2.561l0.011-0.031c0.231-0.542 0.368-1.172 0.372-1.834v-19.199h3.192c0.042 0.004 0.090 0.006 0.139 0.006 0.888 0 1.608-0.72 1.608-1.608s-0.72-1.608-1.608-1.608c-0.049 0-0.097 0.002-0.145 0.006l0.006-0zM23.997 27.201c0 0.881-0.714 1.596-1.596 1.596v0h-12.802c-0.881 0-1.596-0.714-1.596-1.596v0-19.198h15.994zM12.802 3.204h6.395c0.826-0.074 1.469-0.763 1.469-1.602s-0.643-1.528-1.463-1.601l-0.006-0h-6.395c-0.042-0.004-0.090-0.006-0.139-0.006-0.888 0-1.608 0.72-1.608 1.608s0.72 1.608 1.608 1.608c0.049 0 0.097-0.002 0.145-0.006l-0.006 0z"></path>
   <path fill="currentColor" d="M14.398 22.401v-8.003c-0.074-0.826-0.763-1.469-1.602-1.469s-1.528 0.643-1.601 1.463l-0 0.006v8.003c0.074 0.826 0.763 1.469 1.602 1.469s1.528-0.643 1.601-1.463l0-0.006zM20.793 22.401v-8.003c0-0.881-0.714-1.596-1.596-1.596s-1.596 0.714-1.596 1.596v0 8.003c0 0.881 0.714 1.596 1.596 1.596s1.596-0.714 1.596-1.596v0z"></path>
  </symbol>
  <symbol id="icon-underline" viewBox="0 0 24 32">
   <path fill="currentColor" d="M0 28h24v4h-24z"></path>
   <path fill="currentColor" d="M16 0v4h2v12c0 3.314-2.686 6-6 6s-6-2.686-6-6v0-12h2v-4h-8v4h2v12c0 5.523 4.477 10 10 10s10-4.477 10-10v0-12h2v-4z"></path>
  </symbol>
  <symbol id="icon-wallet" viewBox="0 0 32 32">
   <path fill="currentColor" d="M30.239 10.671h-7.123v-8.897c0-0.002 0-0.004 0-0.006 0-0.321-0.084-0.623-0.231-0.884l0.005 0.009c-0.152-0.275-0.369-0.497-0.632-0.649l-0.008-0.004c-0.254-0.151-0.56-0.24-0.887-0.24s-0.633 0.089-0.895 0.244l-19.56 10.667c-0.101 0.062-0.189 0.133-0.266 0.213l-0 0-0.16 0.12c-0.139 0.154-0.259 0.33-0.354 0.52l-0.006 0.014c-0.076 0.183-0.121 0.395-0.121 0.618 0 0.017 0 0.034 0.001 0.052l-0-0.002v17.781c-0 0.004-0 0.009-0 0.013 0 0.98 0.794 1.774 1.774 1.774 0 0 0 0 0 0h7.123c0.98 0 1.774-0.794 1.774-1.774s-0.794-1.774-1.774-1.774v0h-5.336v-14.246h24.89v1.787h-5.336c-2.947 0-5.336 2.389-5.336 5.336s2.389 5.336 5.336 5.336v0h5.336v1.787h-12.445c-0.98 0-1.774 0.794-1.774 1.774s0.794 1.774 1.774 1.774v0h14.233c0 0 0 0 0 0 0.98 0 1.774-0.794 1.774-1.774 0-0.005-0-0.009-0-0.014v0.001-17.781c0-0.98-0.794-1.774-1.774-1.774v0zM8.75 10.671l10.818-5.896v5.896zM23.116 23.13c-0.491-0.006-0.934-0.209-1.254-0.533l-0-0c-0.321-0.319-0.52-0.761-0.52-1.25 0-0.002 0-0.003 0-0.005v0c0-0.98 0.794-1.774 1.774-1.774v0h5.336v3.561z"></path>
  </symbol>
 </defs>
</svg>
