<svg xmlns="http://www.w3.org/2000/svg" viewBox="0 0 24 24">
 <path d="M22.67,0H1.33A1.33,1.33,0,0,0,0,1.33V22.67A1.33,1.33,0,0,0,1.33,24h12a1.34,1.34,0,1,0,0-2.67H2.67v-8H21.33v8H18.67a1.34,1.34,0,1,0,0,2.67h4A1.33,1.33,0,0,0,24,22.67V1.33A1.33,1.33,0,0,0,22.67,0Zm-20,10.67v-8H21.33v8Z"/>
 <path d="M17.33,16a1.33,1.33,0,0,0-2.66,0H9.33a1.33,1.33,0,0,0-2.66,0v1.33A1.33,1.33,0,0,0,8,18.67h8a1.33,1.33,0,0,0,1.33-1.34ZM16,4a1.33,1.33,0,0,0-1.33,1.33H9.33a1.33,1.33,0,0,0-2.66,0V6.67A1.33,1.33,0,0,0,8,8h8a1.33,1.33,0,0,0,1.33-1.33V5.33A1.33,1.33,0,0,0,16,4Z"/>
</svg>