<svg xmlns="http://www.w3.org/2000/svg" viewBox="0 0 24 24.03">
 <path d="M19.77,15.18a4,4,0,0,0,1.32-4.44,3.93,3.93,0,0,0-1.45-2,3.76,3.76,0,0,0-3.45-.57,6.87,6.87,0,0,0-1.74-1.06,4,4,0,1,0-4.89,0,6.19,6.19,0,0,0-1.75,1A4.08,4.08,0,0,0,6,8.1a4,4,0,0,0-1.74,7.08A6.65,6.65,0,0,0,0,21.36V22.7A1.33,1.33,0,0,0,1.33,24H16a1.33,1.33,0,0,0,1.33-1.33,1.36,1.36,0,0,0-.39-.95,1.33,1.33,0,0,0-.94-.39H13.33a4,4,0,0,1,1.17-2.82,4,4,0,0,1,5.66,0,4,4,0,0,1,1.17,2.82,1.33,1.33,0,0,0-.94.39,1.36,1.36,0,0,0-.39.95A1.33,1.33,0,0,0,21.33,24h1.34A1.33,1.33,0,0,0,24,22.7V21.36a6.65,6.65,0,0,0-4.23-6.18ZM18.67,12a1.32,1.32,0,0,1-.23.74,1.26,1.26,0,0,1-.6.49,1.35,1.35,0,0,1-.77.08,1.31,1.31,0,0,1-.68-.37,1.35,1.35,0,0,1-.29-1.45,1.36,1.36,0,0,1,.49-.6,1.39,1.39,0,0,1,.74-.22A1.33,1.33,0,0,1,18.67,12ZM12,2.7a1.39,1.39,0,0,1,.74.22,1.36,1.36,0,0,1,.49.6,1.35,1.35,0,0,1,.08.77,1.27,1.27,0,0,1-.37.68,1.27,1.27,0,0,1-.68.37,1.35,1.35,0,0,1-.77-.08,1.36,1.36,0,0,1-.6-.49A1.31,1.31,0,0,1,10.67,4,1.33,1.33,0,0,1,12,2.7Zm-5.33,8a1.39,1.39,0,0,1,.74.22,1.36,1.36,0,0,1,.49.6A1.35,1.35,0,0,1,7.61,13a1.31,1.31,0,0,1-.68.37,1.35,1.35,0,0,1-.77-.08,1.26,1.26,0,0,1-.6-.49,1.32,1.32,0,0,1,.16-1.68A1.34,1.34,0,0,1,6.67,10.7Zm0,6.66A4,4,0,0,1,9.5,18.54a4,4,0,0,1,1.17,2.82h-8a4,4,0,0,1,4-4Zm5.33,0a6.73,6.73,0,0,0-2.89-2.22,4,4,0,0,0,1.5-2.45A3.94,3.94,0,0,0,10,9.87a4.17,4.17,0,0,1,3.92,0,3.94,3.94,0,0,0-.57,2.82,4,4,0,0,0,1.5,2.45A6.73,6.73,0,0,0,12,17.36Z"/>
</svg>