<svg xmlns="http://www.w3.org/2000/svg" viewBox="0 0 23.9 24">
 <path d="M12,24A12,12,0,0,1,12,0a4.1,4.1,0,0,1,1.1.1,1.24,1.24,0,0,1,1.1,1.4,1.24,1.24,0,0,1-1.4,1.1h-.9a9.5,9.5,0,0,0,0,19,9.56,9.56,0,0,0,9.5-9.5,4.1,4.1,0,0,0-.1-1.1,1.26,1.26,0,0,1,2.5-.3c0,.4.1.9.1,1.4A11.86,11.86,0,0,1,12,24Z"/>
 <path d="M14.8,16a1.22,1.22,0,0,1-.9-.4l-2.8-2.8a1.49,1.49,0,0,1-.4-.9V5.2a1.3,1.3,0,0,1,2.6,0v6.3l2.4,2.4a1.27,1.27,0,0,1,0,1.8A1.61,1.61,0,0,1,14.8,16ZM16.6,3.6a1.32,1.32,0,0,1-1.3-1.3,1.3,1.3,0,0,1,2.6,0A1.32,1.32,0,0,1,16.6,3.6Zm2.9,1.9a1.32,1.32,0,0,1-1.3-1.3,1.31,1.31,0,0,1,1.2-1.3,1.32,1.32,0,0,1,1.3,1.3A1.13,1.13,0,0,1,19.5,5.5Zm2.2,3.1a1.32,1.32,0,0,1-1.3-1.3A1.31,1.31,0,0,1,21.6,6a1.32,1.32,0,0,1,1.3,1.3A1.24,1.24,0,0,1,21.7,8.6Z"/>
</svg>