<svg xmlns="http://www.w3.org/2000/svg" viewBox="0 0 26.67 26.67">
 <path d="M25.33,4h-24a1.34,1.34,0,0,0,0,2.67H4v16a4,4,0,0,0,.3,1.53,4.36,4.36,0,0,0,.87,1.3,3.93,3.93,0,0,0,1.3.86A4,4,0,0,0,8,26.67H18.67a4.06,4.06,0,0,0,1.53-.31,3.9,3.9,0,0,0,2.16-2.16,4.06,4.06,0,0,0,.31-1.53v-16h2.66a1.34,1.34,0,1,0,0-2.67ZM20,22.67A1.33,1.33,0,0,1,18.67,24H8a1.33,1.33,0,0,1-1.33-1.33v-16H20Zm-9.33-20H16A1.34,1.34,0,0,0,16,0H10.67a1.34,1.34,0,1,0,0,2.67Z"/>
 <path d="M12,18.67V12a1.34,1.34,0,0,0-2.67,0v6.67a1.34,1.34,0,0,0,2.67,0Zm5.33,0V12a1.33,1.33,0,0,0-2.66,0v6.67a1.33,1.33,0,0,0,2.66,0Z"/>
</svg>