<svg xmlns="http://www.w3.org/2000/svg" viewBox="0 0 24 23.99">
 <path d="M22.67,8H17.33V1.33a1.35,1.35,0,0,0-.17-.66,1.26,1.26,0,0,0-.48-.49,1.32,1.32,0,0,0-1.33,0L.68,8.18a1,1,0,0,0-.2.16l-.12.09a1.76,1.76,0,0,0-.27.4,1.23,1.23,0,0,0-.09.5V22.66A1.33,1.33,0,0,0,1.33,24H6.67a1.33,1.33,0,0,0,0-2.66h-4V10.66H21.33V12h-4a4,4,0,0,0,0,8h4v1.34H12A1.33,1.33,0,0,0,12,24H22.67A1.33,1.33,0,0,0,24,22.66V9.33A1.33,1.33,0,0,0,22.67,8ZM6.56,8l8.11-4.42V8Zm10.77,9.34a1.34,1.34,0,0,1-.94-.4A1.32,1.32,0,0,1,16,16a1.33,1.33,0,0,1,1.33-1.33h4v2.67Z"/>
</svg>